M48
; DRILL file {KiCad 8.0.5} date 2024-10-02T11:06:20-0600
; FORMAT={-:-/ absolute / metric / decimal}
; #@! TF.CreationDate,2024-10-02T11:06:20-06:00
; #@! TF.GenerationSoftware,Kicad,Pcbnew,8.0.5
; #@! TF.FileFunction,MixedPlating,1,4
FMAT,2
METRIC
; #@! TA.AperFunction,Plated,PTH,ViaDrill
T1C0.300
; #@! TA.AperFunction,Plated,PTH,ComponentDrill
T2C0.600
; #@! TA.AperFunction,Plated,PTH,ComponentDrill
T3C1.016
; #@! TA.AperFunction,NonPlated,NPTH,ComponentDrill
T4C0.650
; #@! TA.AperFunction,NonPlated,NPTH,ComponentDrill
T5C3.100
%
G90
G05
T1
X1.27Y149.455
X1.27Y138.025
X1.27Y105.775
X1.27Y94.345
X1.27Y62.095
X1.27Y50.665
X1.27Y18.415
X1.27Y6.985
X4.763Y149.455
X4.763Y142.48
X4.763Y138.025
X4.763Y105.775
X4.763Y98.8
X4.763Y94.345
X4.763Y62.095
X4.763Y55.12
X4.763Y50.665
X4.763Y18.415
X4.763Y11.44
X4.763Y6.985
X4.852Y145.035
X4.852Y101.355
X4.852Y57.675
X4.852Y13.995
X6.985Y146.915
X6.985Y140.565
X6.985Y103.235
X6.985Y96.885
X6.985Y59.555
X6.985Y53.205
X6.985Y15.875
X6.985Y9.525
X7.302Y144.058
X7.302Y142.969
X7.302Y134.85
X7.302Y100.377
X7.302Y99.289
X7.302Y91.17
X7.302Y56.697
X7.302Y55.609
X7.302Y47.49
X7.302Y13.018
X7.302Y11.929
X7.302Y3.81
X7.938Y138.977
X7.938Y95.297
X7.938Y51.617
X7.938Y7.938
X8.255Y134.85
X8.255Y91.17
X8.255Y47.49
X8.255Y3.81
X8.89Y151.677
X8.89Y148.82
X8.89Y107.997
X8.89Y105.14
X8.89Y64.317
X8.89Y61.46
X8.89Y20.637
X8.89Y17.78
X9.525Y170.41
X9.525Y126.73
X9.525Y83.05
X9.525Y39.37
X9.842Y138.66
X9.842Y94.98
X9.842Y51.3
X9.842Y7.62
X10.16Y145.645
X10.16Y140.882
X10.16Y101.965
X10.16Y97.203
X10.16Y58.285
X10.16Y53.523
X10.16Y14.605
X10.16Y9.842
X10.477Y170.41
X10.477Y142.787
X10.477Y126.73
X10.477Y99.108
X10.477Y83.05
X10.477Y55.427
X10.477Y39.37
X10.477Y11.747
X10.795Y158.98
X10.795Y115.3
X10.795Y71.62
X10.795Y27.94
X11.112Y147.232
X11.112Y141.517
X11.112Y103.552
X11.112Y97.837
X11.112Y59.872
X11.112Y54.157
X11.112Y16.192
X11.112Y10.477
X12.7Y151.995
X12.7Y108.315
X12.7Y64.635
X12.7Y20.955
X13.018Y148.185
X13.018Y104.505
X13.018Y60.825
X13.018Y17.145
X13.335Y143.74
X13.335Y100.06
X13.335Y56.38
X13.335Y12.7
X13.652Y148.82
X13.652Y105.14
X13.652Y61.46
X13.652Y17.78
X14.922Y148.82
X14.922Y105.14
X14.922Y61.46
X14.922Y17.78
X15.24Y139.93
X15.24Y96.25
X15.24Y52.57
X15.24Y8.89
X15.875Y150.09
X15.875Y147.55
X15.875Y106.41
X15.875Y103.87
X15.875Y62.73
X15.875Y60.19
X15.875Y19.05
X15.875Y16.51
X16.51Y163.425
X16.51Y119.745
X16.51Y76.065
X16.51Y32.385
X17.005Y145.327
X17.005Y101.647
X17.005Y57.967
X17.005Y14.287
X17.462Y135.167
X17.462Y91.487
X17.462Y47.807
X17.462Y4.127
X17.767Y171.667
X17.767Y127.987
X17.767Y84.307
X17.767Y40.627
X17.78Y142.787
X17.78Y141.2
X17.78Y99.108
X17.78Y97.52
X17.78Y55.427
X17.78Y53.84
X17.78Y11.747
X17.78Y10.16
X18.098Y153.9
X18.098Y110.22
X18.098Y66.54
X18.098Y22.86
X18.415Y170.093
X18.415Y126.412
X18.415Y82.733
X18.415Y39.052
X18.732Y169.14
X18.732Y157.392
X18.732Y125.46
X18.732Y113.712
X18.732Y81.78
X18.732Y70.032
X18.732Y38.1
X18.732Y26.352
X19.367Y170.093
X19.367Y126.412
X19.367Y82.733
X19.367Y39.052
X19.685Y157.392
X19.685Y146.28
X19.685Y144.375
X19.685Y138.025
X19.685Y113.712
X19.685Y102.6
X19.685Y100.695
X19.685Y94.345
X19.685Y70.032
X19.685Y58.92
X19.685Y57.015
X19.685Y50.665
X19.685Y26.352
X19.685Y15.24
X19.685Y13.335
X19.685Y6.985
X20.002Y162.472
X20.002Y118.792
X20.002Y75.112
X20.002Y31.432
X20.32Y143.105
X20.32Y139.295
X20.32Y99.425
X20.32Y95.615
X20.32Y55.745
X20.32Y51.935
X20.32Y12.065
X20.32Y8.255
X20.637Y151.36
X20.637Y150.407
X20.637Y149.137
X20.637Y148.185
X20.637Y107.68
X20.637Y106.727
X20.637Y105.457
X20.637Y104.505
X20.637Y64.0
X20.637Y63.047
X20.637Y61.777
X20.637Y60.825
X20.637Y20.32
X20.637Y19.367
X20.637Y18.098
X20.637Y17.145
X20.738Y145.01
X20.738Y101.33
X20.738Y57.65
X20.738Y13.97
X20.955Y158.98
X20.955Y115.3
X20.955Y71.62
X20.955Y27.94
X21.272Y160.726
X21.272Y117.046
X21.272Y73.366
X21.272Y29.686
X21.59Y167.235
X21.59Y164.695
X21.59Y162.155
X21.59Y123.555
X21.59Y121.015
X21.59Y118.475
X21.59Y79.875
X21.59Y77.335
X21.59Y74.795
X21.59Y36.195
X21.59Y33.655
X21.59Y31.115
X22.225Y144.058
X22.225Y100.377
X22.225Y56.697
X22.225Y13.018
X22.86Y133.58
X22.86Y89.9
X22.86Y46.22
X22.86Y2.54
X23.373Y158.028
X23.373Y114.347
X23.373Y70.667
X23.373Y26.987
X23.654Y160.726
X23.654Y117.046
X23.654Y73.366
X23.654Y29.686
X25.045Y158.315
X25.045Y156.915
X25.045Y155.515
X25.045Y154.115
X25.045Y152.715
X25.045Y151.215
X25.045Y149.815
X25.045Y148.415
X25.045Y147.015
X25.045Y145.615
X25.045Y114.635
X25.045Y113.235
X25.045Y111.835
X25.045Y110.435
X25.045Y109.035
X25.045Y107.535
X25.045Y106.135
X25.045Y104.735
X25.045Y103.335
X25.045Y101.935
X25.045Y70.955
X25.045Y69.555
X25.045Y68.155
X25.045Y66.755
X25.045Y65.355
X25.045Y63.855
X25.045Y62.455
X25.045Y61.055
X25.045Y59.655
X25.045Y58.255
X25.045Y27.275
X25.045Y25.875
X25.045Y24.475
X25.045Y23.075
X25.045Y21.675
X25.045Y20.175
X25.045Y18.775
X25.045Y17.375
X25.045Y15.975
X25.045Y14.575
X25.4Y168.822
X25.4Y161.634
X25.4Y160.034
X25.4Y125.142
X25.4Y117.954
X25.4Y116.353
X25.4Y81.462
X25.4Y74.274
X25.4Y72.673
X25.4Y37.782
X25.4Y30.594
X25.4Y28.993
X26.545Y158.315
X26.545Y156.915
X26.545Y155.515
X26.545Y154.115
X26.545Y152.715
X26.545Y151.215
X26.545Y149.815
X26.545Y148.415
X26.545Y147.015
X26.545Y145.615
X26.545Y114.635
X26.545Y113.235
X26.545Y111.835
X26.545Y110.435
X26.545Y109.035
X26.545Y107.535
X26.545Y106.135
X26.545Y104.735
X26.545Y103.335
X26.545Y101.935
X26.545Y70.955
X26.545Y69.555
X26.545Y68.155
X26.545Y66.755
X26.545Y65.355
X26.545Y63.855
X26.545Y62.455
X26.545Y61.055
X26.545Y59.655
X26.545Y58.255
X26.545Y27.275
X26.545Y25.875
X26.545Y24.475
X26.545Y23.075
X26.545Y21.675
X26.545Y20.175
X26.545Y18.775
X26.545Y17.375
X26.545Y15.975
X26.545Y14.575
X28.045Y158.315
X28.045Y156.915
X28.045Y155.515
X28.045Y154.115
X28.045Y152.715
X28.045Y151.215
X28.045Y149.815
X28.045Y148.415
X28.045Y147.015
X28.045Y145.615
X28.045Y114.635
X28.045Y113.235
X28.045Y111.835
X28.045Y110.435
X28.045Y109.035
X28.045Y107.535
X28.045Y106.135
X28.045Y104.735
X28.045Y103.335
X28.045Y101.935
X28.045Y70.955
X28.045Y69.555
X28.045Y68.155
X28.045Y66.755
X28.045Y65.355
X28.045Y63.855
X28.045Y62.455
X28.045Y61.055
X28.045Y59.655
X28.045Y58.255
X28.045Y27.275
X28.045Y25.875
X28.045Y24.475
X28.045Y23.075
X28.045Y21.675
X28.045Y20.175
X28.045Y18.775
X28.045Y17.375
X28.045Y15.975
X28.045Y14.575
X29.21Y170.093
X29.21Y126.412
X29.21Y82.733
X29.21Y39.052
X29.545Y158.315
X29.545Y156.915
X29.545Y155.515
X29.545Y154.115
X29.545Y152.715
X29.545Y151.215
X29.545Y149.815
X29.545Y148.415
X29.545Y147.015
X29.545Y145.615
X29.545Y114.635
X29.545Y113.235
X29.545Y111.835
X29.545Y110.435
X29.545Y109.035
X29.545Y107.535
X29.545Y106.135
X29.545Y104.735
X29.545Y103.335
X29.545Y101.935
X29.545Y70.955
X29.545Y69.555
X29.545Y68.155
X29.545Y66.755
X29.545Y65.355
X29.545Y63.855
X29.545Y62.455
X29.545Y61.055
X29.545Y59.655
X29.545Y58.255
X29.545Y27.275
X29.545Y25.875
X29.545Y24.475
X29.545Y23.075
X29.545Y21.675
X29.545Y20.175
X29.545Y18.775
X29.545Y17.375
X29.545Y15.975
X29.545Y14.575
X30.48Y133.58
X30.48Y89.9
X30.48Y46.22
X30.48Y2.54
X31.115Y163.425
X31.115Y119.745
X31.115Y76.065
X31.115Y32.385
X31.75Y169.457
X31.75Y125.777
X31.75Y82.097
X31.75Y38.417
X32.325Y153.007
X32.325Y109.328
X32.325Y65.647
X32.325Y21.967
X32.703Y139.93
X32.703Y96.25
X32.703Y52.57
X32.703Y8.89
X33.655Y167.552
X33.655Y155.805
X33.655Y123.872
X33.655Y112.125
X33.655Y80.192
X33.655Y68.445
X33.655Y36.512
X33.655Y24.765
X33.89Y151.595
X33.89Y107.915
X33.89Y64.235
X33.89Y20.555
X33.972Y158.662
X33.972Y157.075
X33.972Y150.407
X33.972Y114.983
X33.972Y113.395
X33.972Y106.727
X33.972Y71.302
X33.972Y69.715
X33.972Y63.047
X33.972Y27.622
X33.972Y26.035
X33.972Y19.367
X34.29Y164.06
X34.29Y163.266
X34.29Y155.17
X34.29Y120.38
X34.29Y119.586
X34.29Y111.49
X34.29Y76.7
X34.29Y75.906
X34.29Y67.81
X34.29Y33.02
X34.29Y32.226
X34.29Y24.13
X34.608Y149.455
X34.608Y105.775
X34.608Y62.095
X34.608Y18.415
X34.925Y158.662
X34.925Y154.218
X34.925Y151.36
X34.925Y141.835
X34.925Y114.983
X34.925Y110.537
X34.925Y107.68
X34.925Y98.155
X34.925Y71.302
X34.925Y66.858
X34.925Y64.0
X34.925Y54.475
X34.925Y27.622
X34.925Y23.177
X34.925Y20.32
X34.925Y10.795
X35.56Y155.805
X35.56Y148.502
X35.56Y112.125
X35.56Y104.822
X35.56Y68.445
X35.56Y61.142
X35.56Y24.765
X35.56Y17.462
X36.195Y154.218
X36.195Y110.537
X36.195Y66.858
X36.195Y23.177
X36.512Y159.615
X36.512Y151.36
X36.512Y149.772
X36.512Y148.82
X36.512Y115.935
X36.512Y107.68
X36.512Y106.093
X36.512Y105.14
X36.512Y72.255
X36.512Y64.0
X36.512Y62.412
X36.512Y61.46
X36.512Y28.575
X36.512Y20.32
X36.512Y18.732
X36.512Y17.78
X37.148Y162.79
X37.148Y119.11
X37.148Y75.43
X37.148Y31.75
X37.465Y151.36
X37.465Y149.772
X37.465Y145.01
X37.465Y107.68
X37.465Y106.093
X37.465Y101.33
X37.465Y64.0
X37.465Y62.412
X37.465Y57.65
X37.465Y20.32
X37.465Y18.732
X37.465Y13.97
X38.1Y159.615
X38.1Y144.058
X38.1Y142.153
X38.1Y140.248
X38.1Y138.66
X38.1Y115.935
X38.1Y100.377
X38.1Y98.472
X38.1Y96.567
X38.1Y94.98
X38.1Y72.255
X38.1Y56.697
X38.1Y54.792
X38.1Y52.887
X38.1Y51.3
X38.1Y28.575
X38.1Y13.018
X38.1Y11.112
X38.1Y9.207
X38.1Y7.62
X38.417Y153.265
X38.417Y151.36
X38.417Y149.772
X38.417Y147.55
X38.417Y109.585
X38.417Y107.68
X38.417Y106.093
X38.417Y103.87
X38.417Y65.905
X38.417Y64.0
X38.417Y62.412
X38.417Y60.19
X38.417Y22.225
X38.417Y20.32
X38.417Y18.732
X38.417Y16.51
X39.37Y154.535
X39.37Y146.597
X39.37Y145.327
X39.37Y137.072
X39.37Y110.855
X39.37Y102.917
X39.37Y101.647
X39.37Y93.392
X39.37Y67.175
X39.37Y59.237
X39.37Y57.967
X39.37Y49.712
X39.37Y23.495
X39.37Y15.557
X39.37Y14.287
X39.37Y6.032
X40.005Y165.965
X40.005Y159.615
X40.005Y122.285
X40.005Y115.935
X40.005Y78.605
X40.005Y72.255
X40.005Y34.925
X40.005Y28.575
X40.957Y154.535
X40.957Y146.597
X40.957Y145.327
X40.957Y137.072
X40.957Y110.855
X40.957Y102.917
X40.957Y101.647
X40.957Y93.392
X40.957Y67.175
X40.957Y59.237
X40.957Y57.967
X40.957Y49.712
X40.957Y23.495
X40.957Y15.557
X40.957Y14.287
X40.957Y6.032
X42.545Y154.535
X42.545Y146.597
X42.545Y145.327
X42.545Y137.072
X42.545Y110.855
X42.545Y102.917
X42.545Y101.647
X42.545Y93.392
X42.545Y67.175
X42.545Y59.237
X42.545Y57.967
X42.545Y49.712
X42.545Y23.495
X42.545Y15.557
X42.545Y14.287
X42.545Y6.032
X47.998Y149.455
X47.998Y138.025
X47.998Y105.775
X47.998Y94.345
X47.998Y62.095
X47.998Y50.665
X47.998Y18.415
X47.998Y6.985
X51.49Y149.455
X51.49Y142.48
X51.49Y138.025
X51.49Y105.775
X51.49Y98.8
X51.49Y94.345
X51.49Y62.095
X51.49Y55.12
X51.49Y50.665
X51.49Y18.415
X51.49Y11.44
X51.49Y6.985
X51.58Y145.035
X51.58Y101.355
X51.58Y57.675
X51.58Y13.995
X53.713Y146.915
X53.713Y140.565
X53.713Y103.235
X53.713Y96.885
X53.713Y59.555
X53.713Y53.205
X53.713Y15.875
X53.713Y9.525
X54.03Y144.058
X54.03Y142.969
X54.03Y134.85
X54.03Y100.377
X54.03Y99.289
X54.03Y91.17
X54.03Y56.697
X54.03Y55.609
X54.03Y47.49
X54.03Y13.018
X54.03Y11.929
X54.03Y3.81
X54.665Y138.977
X54.665Y95.297
X54.665Y51.617
X54.665Y7.938
X54.983Y134.85
X54.983Y91.17
X54.983Y47.49
X54.983Y3.81
X55.618Y151.677
X55.618Y148.82
X55.618Y107.997
X55.618Y105.14
X55.618Y64.317
X55.618Y61.46
X55.618Y20.637
X55.618Y17.78
X56.253Y170.41
X56.253Y126.73
X56.253Y83.05
X56.253Y39.37
X56.57Y138.66
X56.57Y94.98
X56.57Y51.3
X56.57Y7.62
X56.888Y145.645
X56.888Y140.882
X56.888Y101.965
X56.888Y97.203
X56.888Y58.285
X56.888Y53.523
X56.888Y14.605
X56.888Y9.842
X57.206Y170.41
X57.206Y142.787
X57.206Y126.73
X57.206Y99.108
X57.206Y83.05
X57.206Y55.427
X57.206Y39.37
X57.206Y11.747
X57.523Y158.98
X57.523Y115.3
X57.523Y71.62
X57.523Y27.94
X57.84Y147.232
X57.84Y141.517
X57.84Y103.552
X57.84Y97.837
X57.84Y59.872
X57.84Y54.157
X57.84Y16.192
X57.84Y10.477
X59.428Y151.995
X59.428Y108.315
X59.428Y64.635
X59.428Y20.955
X59.745Y148.185
X59.745Y104.505
X59.745Y60.825
X59.745Y17.145
X60.063Y143.74
X60.063Y100.06
X60.063Y56.38
X60.063Y12.7
X60.38Y148.82
X60.38Y105.14
X60.38Y61.46
X60.38Y17.78
X61.65Y148.82
X61.65Y105.14
X61.65Y61.46
X61.65Y17.78
X61.968Y139.93
X61.968Y96.25
X61.968Y52.57
X61.968Y8.89
X62.603Y150.09
X62.603Y147.55
X62.603Y106.41
X62.603Y103.87
X62.603Y62.73
X62.603Y60.19
X62.603Y19.05
X62.603Y16.51
X63.238Y163.425
X63.238Y119.745
X63.238Y76.065
X63.238Y32.385
X63.733Y145.327
X63.733Y101.647
X63.733Y57.967
X63.733Y14.287
X64.191Y135.167
X64.191Y91.487
X64.191Y47.807
X64.191Y4.127
X64.495Y171.667
X64.495Y127.987
X64.495Y84.307
X64.495Y40.627
X64.508Y142.787
X64.508Y141.2
X64.508Y99.108
X64.508Y97.52
X64.508Y55.427
X64.508Y53.84
X64.508Y11.747
X64.508Y10.16
X64.825Y153.9
X64.825Y110.22
X64.825Y66.54
X64.825Y22.86
X65.143Y170.093
X65.143Y126.412
X65.143Y82.733
X65.143Y39.052
X65.46Y169.14
X65.46Y157.392
X65.46Y125.46
X65.46Y113.712
X65.46Y81.78
X65.46Y70.032
X65.46Y38.1
X65.46Y26.352
X66.096Y170.093
X66.096Y126.412
X66.096Y82.733
X66.096Y39.052
X66.413Y157.392
X66.413Y146.28
X66.413Y144.375
X66.413Y138.025
X66.413Y113.712
X66.413Y102.6
X66.413Y100.695
X66.413Y94.345
X66.413Y70.032
X66.413Y58.92
X66.413Y57.015
X66.413Y50.665
X66.413Y26.352
X66.413Y15.24
X66.413Y13.335
X66.413Y6.985
X66.73Y162.472
X66.73Y118.792
X66.73Y75.112
X66.73Y31.432
X67.048Y143.105
X67.048Y139.295
X67.048Y99.425
X67.048Y95.615
X67.048Y55.745
X67.048Y51.935
X67.048Y12.065
X67.048Y8.255
X67.365Y151.36
X67.365Y150.407
X67.365Y149.137
X67.365Y148.185
X67.365Y107.68
X67.365Y106.727
X67.365Y105.457
X67.365Y104.505
X67.365Y64.0
X67.365Y63.047
X67.365Y61.777
X67.365Y60.825
X67.365Y20.32
X67.365Y19.367
X67.365Y18.098
X67.365Y17.145
X67.466Y145.01
X67.466Y101.33
X67.466Y57.65
X67.466Y13.97
X67.683Y158.98
X67.683Y115.3
X67.683Y71.62
X67.683Y27.94
X68.001Y160.726
X68.001Y117.046
X68.001Y73.366
X68.001Y29.686
X68.318Y167.235
X68.318Y164.695
X68.318Y162.155
X68.318Y123.555
X68.318Y121.015
X68.318Y118.475
X68.318Y79.875
X68.318Y77.335
X68.318Y74.795
X68.318Y36.195
X68.318Y33.655
X68.318Y31.115
X68.953Y144.058
X68.953Y100.377
X68.953Y56.697
X68.953Y13.018
X69.588Y133.58
X69.588Y89.9
X69.588Y46.22
X69.588Y2.54
X70.101Y158.028
X70.101Y114.347
X70.101Y70.667
X70.101Y26.987
X70.382Y160.726
X70.382Y117.046
X70.382Y73.366
X70.382Y29.686
X71.773Y158.315
X71.773Y156.915
X71.773Y155.515
X71.773Y154.115
X71.773Y152.715
X71.773Y151.215
X71.773Y149.815
X71.773Y148.415
X71.773Y147.015
X71.773Y145.615
X71.773Y114.635
X71.773Y113.235
X71.773Y111.835
X71.773Y110.435
X71.773Y109.035
X71.773Y107.535
X71.773Y106.135
X71.773Y104.735
X71.773Y103.335
X71.773Y101.935
X71.773Y70.955
X71.773Y69.555
X71.773Y68.155
X71.773Y66.755
X71.773Y65.355
X71.773Y63.855
X71.773Y62.455
X71.773Y61.055
X71.773Y59.655
X71.773Y58.255
X71.773Y27.275
X71.773Y25.875
X71.773Y24.475
X71.773Y23.075
X71.773Y21.675
X71.773Y20.175
X71.773Y18.775
X71.773Y17.375
X71.773Y15.975
X71.773Y14.575
X72.128Y168.822
X72.128Y161.634
X72.128Y160.034
X72.128Y125.142
X72.128Y117.954
X72.128Y116.353
X72.128Y81.462
X72.128Y74.274
X72.128Y72.673
X72.128Y37.782
X72.128Y30.594
X72.128Y28.993
X73.273Y158.315
X73.273Y156.915
X73.273Y155.515
X73.273Y154.115
X73.273Y152.715
X73.273Y151.215
X73.273Y149.815
X73.273Y148.415
X73.273Y147.015
X73.273Y145.615
X73.273Y114.635
X73.273Y113.235
X73.273Y111.835
X73.273Y110.435
X73.273Y109.035
X73.273Y107.535
X73.273Y106.135
X73.273Y104.735
X73.273Y103.335
X73.273Y101.935
X73.273Y70.955
X73.273Y69.555
X73.273Y68.155
X73.273Y66.755
X73.273Y65.355
X73.273Y63.855
X73.273Y62.455
X73.273Y61.055
X73.273Y59.655
X73.273Y58.255
X73.273Y27.275
X73.273Y25.875
X73.273Y24.475
X73.273Y23.075
X73.273Y21.675
X73.273Y20.175
X73.273Y18.775
X73.273Y17.375
X73.273Y15.975
X73.273Y14.575
X74.773Y158.315
X74.773Y156.915
X74.773Y155.515
X74.773Y154.115
X74.773Y152.715
X74.773Y151.215
X74.773Y149.815
X74.773Y148.415
X74.773Y147.015
X74.773Y145.615
X74.773Y114.635
X74.773Y113.235
X74.773Y111.835
X74.773Y110.435
X74.773Y109.035
X74.773Y107.535
X74.773Y106.135
X74.773Y104.735
X74.773Y103.335
X74.773Y101.935
X74.773Y70.955
X74.773Y69.555
X74.773Y68.155
X74.773Y66.755
X74.773Y65.355
X74.773Y63.855
X74.773Y62.455
X74.773Y61.055
X74.773Y59.655
X74.773Y58.255
X74.773Y27.275
X74.773Y25.875
X74.773Y24.475
X74.773Y23.075
X74.773Y21.675
X74.773Y20.175
X74.773Y18.775
X74.773Y17.375
X74.773Y15.975
X74.773Y14.575
X75.938Y170.093
X75.938Y126.412
X75.938Y82.733
X75.938Y39.052
X76.273Y158.315
X76.273Y156.915
X76.273Y155.515
X76.273Y154.115
X76.273Y152.715
X76.273Y151.215
X76.273Y149.815
X76.273Y148.415
X76.273Y147.015
X76.273Y145.615
X76.273Y114.635
X76.273Y113.235
X76.273Y111.835
X76.273Y110.435
X76.273Y109.035
X76.273Y107.535
X76.273Y106.135
X76.273Y104.735
X76.273Y103.335
X76.273Y101.935
X76.273Y70.955
X76.273Y69.555
X76.273Y68.155
X76.273Y66.755
X76.273Y65.355
X76.273Y63.855
X76.273Y62.455
X76.273Y61.055
X76.273Y59.655
X76.273Y58.255
X76.273Y27.275
X76.273Y25.875
X76.273Y24.475
X76.273Y23.075
X76.273Y21.675
X76.273Y20.175
X76.273Y18.775
X76.273Y17.375
X76.273Y15.975
X76.273Y14.575
X77.208Y133.58
X77.208Y89.9
X77.208Y46.22
X77.208Y2.54
X77.843Y163.425
X77.843Y119.745
X77.843Y76.065
X77.843Y32.385
X78.478Y169.457
X78.478Y125.777
X78.478Y82.097
X78.478Y38.417
X79.053Y153.007
X79.053Y109.328
X79.053Y65.647
X79.053Y21.967
X79.43Y139.93
X79.43Y96.25
X79.43Y52.57
X79.43Y8.89
X80.383Y167.552
X80.383Y155.805
X80.383Y123.872
X80.383Y112.125
X80.383Y80.192
X80.383Y68.445
X80.383Y36.512
X80.383Y24.765
X80.618Y151.595
X80.618Y107.915
X80.618Y64.235
X80.618Y20.555
X80.7Y158.662
X80.7Y157.075
X80.7Y150.407
X80.7Y114.983
X80.7Y113.395
X80.7Y106.727
X80.7Y71.302
X80.7Y69.715
X80.7Y63.047
X80.7Y27.622
X80.7Y26.035
X80.7Y19.367
X81.018Y164.06
X81.018Y163.266
X81.018Y155.17
X81.018Y120.38
X81.018Y119.586
X81.018Y111.49
X81.018Y76.7
X81.018Y75.906
X81.018Y67.81
X81.018Y33.02
X81.018Y32.226
X81.018Y24.13
X81.335Y149.455
X81.335Y105.775
X81.335Y62.095
X81.335Y18.415
X81.653Y158.662
X81.653Y154.218
X81.653Y151.36
X81.653Y141.835
X81.653Y114.983
X81.653Y110.537
X81.653Y107.68
X81.653Y98.155
X81.653Y71.302
X81.653Y66.858
X81.653Y64.0
X81.653Y54.475
X81.653Y27.622
X81.653Y23.177
X81.653Y20.32
X81.653Y10.795
X82.288Y155.805
X82.288Y148.502
X82.288Y112.125
X82.288Y104.822
X82.288Y68.445
X82.288Y61.142
X82.288Y24.765
X82.288Y17.462
X82.923Y154.218
X82.923Y110.537
X82.923Y66.858
X82.923Y23.177
X83.24Y159.615
X83.24Y151.36
X83.24Y149.772
X83.24Y148.82
X83.24Y115.935
X83.24Y107.68
X83.24Y106.093
X83.24Y105.14
X83.24Y72.255
X83.24Y64.0
X83.24Y62.412
X83.24Y61.46
X83.24Y28.575
X83.24Y20.32
X83.24Y18.732
X83.24Y17.78
X83.876Y162.79
X83.876Y119.11
X83.876Y75.43
X83.876Y31.75
X84.193Y151.36
X84.193Y149.772
X84.193Y145.01
X84.193Y107.68
X84.193Y106.093
X84.193Y101.33
X84.193Y64.0
X84.193Y62.412
X84.193Y57.65
X84.193Y20.32
X84.193Y18.732
X84.193Y13.97
X84.828Y159.615
X84.828Y144.058
X84.828Y142.153
X84.828Y140.248
X84.828Y138.66
X84.828Y115.935
X84.828Y100.377
X84.828Y98.472
X84.828Y96.567
X84.828Y94.98
X84.828Y72.255
X84.828Y56.697
X84.828Y54.792
X84.828Y52.887
X84.828Y51.3
X84.828Y28.575
X84.828Y13.018
X84.828Y11.112
X84.828Y9.207
X84.828Y7.62
X85.145Y153.265
X85.145Y151.36
X85.145Y149.772
X85.145Y147.55
X85.145Y109.585
X85.145Y107.68
X85.145Y106.093
X85.145Y103.87
X85.145Y65.905
X85.145Y64.0
X85.145Y62.412
X85.145Y60.19
X85.145Y22.225
X85.145Y20.32
X85.145Y18.732
X85.145Y16.51
X86.098Y154.535
X86.098Y146.597
X86.098Y145.327
X86.098Y137.072
X86.098Y110.855
X86.098Y102.917
X86.098Y101.647
X86.098Y93.392
X86.098Y67.175
X86.098Y59.237
X86.098Y57.967
X86.098Y49.712
X86.098Y23.495
X86.098Y15.557
X86.098Y14.287
X86.098Y6.032
X86.733Y165.965
X86.733Y159.615
X86.733Y122.285
X86.733Y115.935
X86.733Y78.605
X86.733Y72.255
X86.733Y34.925
X86.733Y28.575
X87.685Y154.535
X87.685Y146.597
X87.685Y145.327
X87.685Y137.072
X87.685Y110.855
X87.685Y102.917
X87.685Y101.647
X87.685Y93.392
X87.685Y67.175
X87.685Y59.237
X87.685Y57.967
X87.685Y49.712
X87.685Y23.495
X87.685Y15.557
X87.685Y14.287
X87.685Y6.032
X89.273Y154.535
X89.273Y146.597
X89.273Y145.327
X89.273Y137.072
X89.273Y110.855
X89.273Y102.917
X89.273Y101.647
X89.273Y93.392
X89.273Y67.175
X89.273Y59.237
X89.273Y57.967
X89.273Y49.712
X89.273Y23.495
X89.273Y15.557
X89.273Y14.287
X89.273Y6.032
T3
X1.27Y165.33
X1.27Y162.79
X1.27Y160.25
X1.27Y157.71
X1.27Y155.17
X1.27Y152.63
X1.27Y121.65
X1.27Y119.11
X1.27Y116.57
X1.27Y114.03
X1.27Y111.49
X1.27Y108.95
X1.27Y77.97
X1.27Y75.43
X1.27Y72.89
X1.27Y70.35
X1.27Y67.81
X1.27Y65.27
X1.27Y34.29
X1.27Y31.75
X1.27Y29.21
X1.27Y26.67
X1.27Y24.13
X1.27Y21.59
X13.97Y172.95
X13.97Y132.31
X13.97Y129.27
X13.97Y88.63
X13.97Y85.59
X13.97Y44.95
X13.97Y41.91
X13.97Y1.27
X16.51Y172.95
X16.51Y132.31
X16.51Y129.27
X16.51Y88.63
X16.51Y85.59
X16.51Y44.95
X16.51Y41.91
X16.51Y1.27
X19.05Y172.95
X19.05Y132.31
X19.05Y129.27
X19.05Y88.63
X19.05Y85.59
X19.05Y44.95
X19.05Y41.91
X19.05Y1.27
X21.59Y172.95
X21.59Y132.31
X21.59Y129.27
X21.59Y88.63
X21.59Y85.59
X21.59Y44.95
X21.59Y41.91
X21.59Y1.27
X24.13Y172.95
X24.13Y132.31
X24.13Y129.27
X24.13Y88.63
X24.13Y85.59
X24.13Y44.95
X24.13Y41.91
X24.13Y1.27
X26.67Y172.95
X26.67Y132.31
X26.67Y129.27
X26.67Y88.63
X26.67Y85.59
X26.67Y44.95
X26.67Y41.91
X26.67Y1.27
X29.21Y172.95
X29.21Y132.31
X29.21Y129.27
X29.21Y88.63
X29.21Y85.59
X29.21Y44.95
X29.21Y41.91
X29.21Y1.27
X31.75Y172.95
X31.75Y132.31
X31.75Y129.27
X31.75Y88.63
X31.75Y85.59
X31.75Y44.95
X31.75Y41.91
X31.75Y1.27
X34.29Y172.95
X34.29Y132.31
X34.29Y129.27
X34.29Y88.63
X34.29Y85.59
X34.29Y44.95
X34.29Y41.91
X34.29Y1.27
X36.83Y132.31
X36.83Y88.63
X36.83Y44.95
X36.83Y1.27
X47.998Y165.33
X47.998Y162.79
X47.998Y160.25
X47.998Y157.71
X47.998Y155.17
X47.998Y152.63
X47.998Y121.65
X47.998Y119.11
X47.998Y116.57
X47.998Y114.03
X47.998Y111.49
X47.998Y108.95
X47.998Y77.97
X47.998Y75.43
X47.998Y72.89
X47.998Y70.35
X47.998Y67.81
X47.998Y65.27
X47.998Y34.29
X47.998Y31.75
X47.998Y29.21
X47.998Y26.67
X47.998Y24.13
X47.998Y21.59
X60.698Y172.95
X60.698Y132.31
X60.698Y129.27
X60.698Y88.63
X60.698Y85.59
X60.698Y44.95
X60.698Y41.91
X60.698Y1.27
X63.238Y172.95
X63.238Y132.31
X63.238Y129.27
X63.238Y88.63
X63.238Y85.59
X63.238Y44.95
X63.238Y41.91
X63.238Y1.27
X65.778Y172.95
X65.778Y132.31
X65.778Y129.27
X65.778Y88.63
X65.778Y85.59
X65.778Y44.95
X65.778Y41.91
X65.778Y1.27
X68.318Y172.95
X68.318Y132.31
X68.318Y129.27
X68.318Y88.63
X68.318Y85.59
X68.318Y44.95
X68.318Y41.91
X68.318Y1.27
X70.858Y172.95
X70.858Y132.31
X70.858Y129.27
X70.858Y88.63
X70.858Y85.59
X70.858Y44.95
X70.858Y41.91
X70.858Y1.27
X73.398Y172.95
X73.398Y132.31
X73.398Y129.27
X73.398Y88.63
X73.398Y85.59
X73.398Y44.95
X73.398Y41.91
X73.398Y1.27
X75.938Y172.95
X75.938Y132.31
X75.938Y129.27
X75.938Y88.63
X75.938Y85.59
X75.938Y44.95
X75.938Y41.91
X75.938Y1.27
X78.478Y172.95
X78.478Y132.31
X78.478Y129.27
X78.478Y88.63
X78.478Y85.59
X78.478Y44.95
X78.478Y41.91
X78.478Y1.27
X81.018Y172.95
X81.018Y132.31
X81.018Y129.27
X81.018Y88.63
X81.018Y85.59
X81.018Y44.95
X81.018Y41.91
X81.018Y1.27
X83.558Y132.31
X83.558Y88.63
X83.558Y44.95
X83.558Y1.27
T4
X4.905Y146.63
X4.905Y140.85
X4.905Y102.95
X4.905Y97.17
X4.905Y59.27
X4.905Y53.49
X4.905Y15.59
X4.905Y9.81
X51.633Y146.63
X51.633Y140.85
X51.633Y102.95
X51.633Y97.17
X51.633Y59.27
X51.633Y53.49
X51.633Y15.59
X51.633Y9.81
T5
X2.54Y171.68
X2.54Y133.58
X2.54Y128.0
X2.54Y89.9
X2.54Y84.32
X2.54Y46.22
X2.54Y40.64
X2.54Y2.54
X40.64Y171.68
X40.64Y133.58
X40.64Y128.0
X40.64Y89.9
X40.64Y84.32
X40.64Y46.22
X40.64Y40.64
X40.64Y2.54
X49.268Y171.68
X49.268Y133.58
X49.268Y128.0
X49.268Y89.9
X49.268Y84.32
X49.268Y46.22
X49.268Y40.64
X49.268Y2.54
X87.368Y171.68
X87.368Y133.58
X87.368Y128.0
X87.368Y89.9
X87.368Y84.32
X87.368Y46.22
X87.368Y40.64
X87.368Y2.54
T2
G00X1.555Y148.058
M15
G01X0.955Y148.058
M16
G05
G00X1.555Y139.422
M15
G01X0.955Y139.422
M16
G05
G00X1.555Y104.378
M15
G01X0.955Y104.378
M16
G05
G00X1.555Y95.742
M15
G01X0.955Y95.742
M16
G05
G00X1.555Y60.698
M15
G01X0.955Y60.698
M16
G05
G00X1.555Y52.062
M15
G01X0.955Y52.062
M16
G05
G00X1.555Y17.018
M15
G01X0.955Y17.018
M16
G05
G00X1.555Y8.382
M15
G01X0.955Y8.382
M16
G05
G00X5.985Y148.058
M15
G01X4.885Y148.058
M16
G05
G00X5.985Y139.422
M15
G01X4.885Y139.422
M16
G05
G00X5.985Y104.378
M15
G01X4.885Y104.378
M16
G05
G00X5.985Y95.742
M15
G01X4.885Y95.742
M16
G05
G00X5.985Y60.698
M15
G01X4.885Y60.698
M16
G05
G00X5.985Y52.062
M15
G01X4.885Y52.062
M16
G05
G00X5.985Y17.018
M15
G01X4.885Y17.018
M16
G05
G00X5.985Y8.382
M15
G01X4.885Y8.382
M16
G05
G00X48.283Y148.058
M15
G01X47.683Y148.058
M16
G05
G00X48.283Y139.422
M15
G01X47.683Y139.422
M16
G05
G00X48.283Y104.378
M15
G01X47.683Y104.378
M16
G05
G00X48.283Y95.742
M15
G01X47.683Y95.742
M16
G05
G00X48.283Y60.698
M15
G01X47.683Y60.698
M16
G05
G00X48.283Y52.062
M15
G01X47.683Y52.062
M16
G05
G00X48.283Y17.018
M15
G01X47.683Y17.018
M16
G05
G00X48.283Y8.382
M15
G01X47.683Y8.382
M16
G05
G00X52.713Y148.058
M15
G01X51.613Y148.058
M16
G05
G00X52.713Y139.422
M15
G01X51.613Y139.422
M16
G05
G00X52.713Y104.378
M15
G01X51.613Y104.378
M16
G05
G00X52.713Y95.742
M15
G01X51.613Y95.742
M16
G05
G00X52.713Y60.698
M15
G01X51.613Y60.698
M16
G05
G00X52.713Y52.062
M15
G01X51.613Y52.062
M16
G05
G00X52.713Y17.018
M15
G01X51.613Y17.018
M16
G05
G00X52.713Y8.382
M15
G01X51.613Y8.382
M16
G05
M30
