%TF.GenerationSoftware,KiCad,Pcbnew,8.0.5*%
%TF.CreationDate,2024-10-02T11:06:20-06:00*%
%TF.ProjectId,SparkFun_GNSS_LG290P_panelized,53706172-6b46-4756-9e5f-474e53535f4c,rev?*%
%TF.SameCoordinates,Original*%
%TF.FileFunction,Paste,Top*%
%TF.FilePolarity,Positive*%
%FSLAX46Y46*%
G04 Gerber Fmt 4.6, Leading zero omitted, Abs format (unit mm)*
G04 Created by KiCad (PCBNEW 8.0.5) date 2024-10-02 11:06:20*
%MOMM*%
%LPD*%
G01*
G04 APERTURE LIST*
G04 Aperture macros list*
%AMRoundRect*
0 Rectangle with rounded corners*
0 $1 Rounding radius*
0 $2 $3 $4 $5 $6 $7 $8 $9 X,Y pos of 4 corners*
0 Add a 4 corners polygon primitive as box body*
4,1,4,$2,$3,$4,$5,$6,$7,$8,$9,$2,$3,0*
0 Add four circle primitives for the rounded corners*
1,1,$1+$1,$2,$3*
1,1,$1+$1,$4,$5*
1,1,$1+$1,$6,$7*
1,1,$1+$1,$8,$9*
0 Add four rect primitives between the rounded corners*
20,1,$1+$1,$2,$3,$4,$5,0*
20,1,$1+$1,$4,$5,$6,$7,0*
20,1,$1+$1,$6,$7,$8,$9,0*
20,1,$1+$1,$8,$9,$2,$3,0*%
G04 Aperture macros list end*
%ADD10C,0.000000*%
%ADD11RoundRect,0.200000X-0.200000X-0.275000X0.200000X-0.275000X0.200000X0.275000X-0.200000X0.275000X0*%
%ADD12RoundRect,0.140000X0.140000X0.170000X-0.140000X0.170000X-0.140000X-0.170000X0.140000X-0.170000X0*%
%ADD13RoundRect,0.225000X0.250000X-0.225000X0.250000X0.225000X-0.250000X0.225000X-0.250000X-0.225000X0*%
%ADD14RoundRect,0.225000X-0.225000X-0.250000X0.225000X-0.250000X0.225000X0.250000X-0.225000X0.250000X0*%
%ADD15RoundRect,0.200000X-0.275000X0.200000X-0.275000X-0.200000X0.275000X-0.200000X0.275000X0.200000X0*%
%ADD16R,0.550000X1.200000*%
%ADD17R,0.600000X1.350000*%
%ADD18R,1.200000X2.000000*%
%ADD19RoundRect,0.140000X0.170000X-0.140000X0.170000X0.140000X-0.170000X0.140000X-0.170000X-0.140000X0*%
%ADD20RoundRect,0.225000X0.225000X0.250000X-0.225000X0.250000X-0.225000X-0.250000X0.225000X-0.250000X0*%
%ADD21RoundRect,0.250000X-0.295000X-0.295000X0.295000X-0.295000X0.295000X0.295000X-0.295000X0.295000X0*%
%ADD22RoundRect,0.056250X-0.315000X-0.056250X0.315000X-0.056250X0.315000X0.056250X-0.315000X0.056250X0*%
%ADD23RoundRect,0.056250X-0.056250X-0.315000X0.056250X-0.315000X0.056250X0.315000X-0.056250X0.315000X0*%
%ADD24R,1.800000X1.600000*%
%ADD25R,1.350000X0.720000*%
%ADD26C,0.900000*%
%ADD27R,0.900000X0.900000*%
%ADD28RoundRect,0.200000X0.200000X0.275000X-0.200000X0.275000X-0.200000X-0.275000X0.200000X-0.275000X0*%
%ADD29RoundRect,0.218750X0.218750X0.256250X-0.218750X0.256250X-0.218750X-0.256250X0.218750X-0.256250X0*%
%ADD30R,1.700000X0.600000*%
%ADD31R,2.700000X1.000000*%
%ADD32R,0.630000X0.830000*%
%ADD33R,1.000000X0.300000*%
%ADD34R,1.000000X0.600000*%
%ADD35O,1.600000X1.000000*%
%ADD36O,2.100000X1.000000*%
%ADD37RoundRect,0.200000X0.275000X-0.200000X0.275000X0.200000X-0.275000X0.200000X-0.275000X-0.200000X0*%
G04 APERTURE END LIST*
D10*
%TO.C,BT1*%
G36*
X62133000Y152214645D02*
G01*
X59647645Y154700000D01*
X62133000Y154700000D01*
X62133000Y152214645D01*
G37*
G36*
X62128000Y149295000D02*
G01*
X57928000Y149295000D01*
X57928000Y150995000D01*
X62128000Y150995000D01*
X62128000Y149295000D01*
G37*
G36*
X62133000Y108534645D02*
G01*
X59647645Y111020000D01*
X62133000Y111020000D01*
X62133000Y108534645D01*
G37*
G36*
X62128000Y105615000D02*
G01*
X57928000Y105615000D01*
X57928000Y107315000D01*
X62128000Y107315000D01*
X62128000Y105615000D01*
G37*
G36*
X62133000Y64854645D02*
G01*
X59647645Y67340000D01*
X62133000Y67340000D01*
X62133000Y64854645D01*
G37*
G36*
X62128000Y61935000D02*
G01*
X57928000Y61935000D01*
X57928000Y63635000D01*
X62128000Y63635000D01*
X62128000Y61935000D01*
G37*
G36*
X62133000Y21174645D02*
G01*
X59647645Y23660000D01*
X62133000Y23660000D01*
X62133000Y21174645D01*
G37*
G36*
X62128000Y18255000D02*
G01*
X57928000Y18255000D01*
X57928000Y19955000D01*
X62128000Y19955000D01*
X62128000Y18255000D01*
G37*
G36*
X15405000Y152214645D02*
G01*
X12919645Y154700000D01*
X15405000Y154700000D01*
X15405000Y152214645D01*
G37*
G36*
X15400000Y149295000D02*
G01*
X11200000Y149295000D01*
X11200000Y150995000D01*
X15400000Y150995000D01*
X15400000Y149295000D01*
G37*
G36*
X15405000Y108534645D02*
G01*
X12919645Y111020000D01*
X15405000Y111020000D01*
X15405000Y108534645D01*
G37*
G36*
X15400000Y105615000D02*
G01*
X11200000Y105615000D01*
X11200000Y107315000D01*
X15400000Y107315000D01*
X15400000Y105615000D01*
G37*
G36*
X15405000Y64854645D02*
G01*
X12919645Y67340000D01*
X15405000Y67340000D01*
X15405000Y64854645D01*
G37*
G36*
X15400000Y61935000D02*
G01*
X11200000Y61935000D01*
X11200000Y63635000D01*
X15400000Y63635000D01*
X15400000Y61935000D01*
G37*
G36*
X15405000Y21174645D02*
G01*
X12919645Y23660000D01*
X15405000Y23660000D01*
X15405000Y21174645D01*
G37*
G36*
X15400000Y18255000D02*
G01*
X11200000Y18255000D01*
X11200000Y19955000D01*
X15400000Y19955000D01*
X15400000Y18255000D01*
G37*
%TD*%
D11*
%TO.C,R7*%
X63683000Y151995000D03*
X65333000Y151995000D03*
%TD*%
%TO.C,R7*%
X63683000Y108315000D03*
X65333000Y108315000D03*
%TD*%
%TO.C,R7*%
X63683000Y64635000D03*
X65333000Y64635000D03*
%TD*%
%TO.C,R7*%
X63683000Y20955000D03*
X65333000Y20955000D03*
%TD*%
%TO.C,R7*%
X16955000Y151995000D03*
X18605000Y151995000D03*
%TD*%
%TO.C,R7*%
X16955000Y108315000D03*
X18605000Y108315000D03*
%TD*%
%TO.C,R7*%
X16955000Y64635000D03*
X18605000Y64635000D03*
%TD*%
D12*
%TO.C,L1*%
X84355500Y155170000D03*
X83395500Y155170000D03*
%TD*%
%TO.C,L1*%
X84355500Y111490000D03*
X83395500Y111490000D03*
%TD*%
%TO.C,L1*%
X84355500Y67810000D03*
X83395500Y67810000D03*
%TD*%
%TO.C,L1*%
X84355500Y24130000D03*
X83395500Y24130000D03*
%TD*%
%TO.C,L1*%
X37627500Y155170000D03*
X36667500Y155170000D03*
%TD*%
%TO.C,L1*%
X37627500Y111490000D03*
X36667500Y111490000D03*
%TD*%
%TO.C,L1*%
X37627500Y67810000D03*
X36667500Y67810000D03*
%TD*%
D13*
%TO.C,C3*%
X86733000Y156935000D03*
X86733000Y158485000D03*
%TD*%
%TO.C,C3*%
X86733000Y113255000D03*
X86733000Y114805000D03*
%TD*%
%TO.C,C3*%
X86733000Y69575000D03*
X86733000Y71125000D03*
%TD*%
%TO.C,C3*%
X86733000Y25895000D03*
X86733000Y27445000D03*
%TD*%
%TO.C,C3*%
X40005000Y156935000D03*
X40005000Y158485000D03*
%TD*%
%TO.C,C3*%
X40005000Y113255000D03*
X40005000Y114805000D03*
%TD*%
%TO.C,C3*%
X40005000Y69575000D03*
X40005000Y71125000D03*
%TD*%
D11*
%TO.C,R9*%
X59238000Y138025000D03*
X60888000Y138025000D03*
%TD*%
%TO.C,R9*%
X59238000Y94345000D03*
X60888000Y94345000D03*
%TD*%
%TO.C,R9*%
X59238000Y50665000D03*
X60888000Y50665000D03*
%TD*%
%TO.C,R9*%
X59238000Y6985000D03*
X60888000Y6985000D03*
%TD*%
%TO.C,R9*%
X12510000Y138025000D03*
X14160000Y138025000D03*
%TD*%
%TO.C,R9*%
X12510000Y94345000D03*
X14160000Y94345000D03*
%TD*%
%TO.C,R9*%
X12510000Y50665000D03*
X14160000Y50665000D03*
%TD*%
D14*
%TO.C,C13*%
X54843000Y139930000D03*
X56393000Y139930000D03*
%TD*%
%TO.C,C13*%
X54843000Y96250000D03*
X56393000Y96250000D03*
%TD*%
%TO.C,C13*%
X54843000Y52570000D03*
X56393000Y52570000D03*
%TD*%
%TO.C,C13*%
X54843000Y8890000D03*
X56393000Y8890000D03*
%TD*%
%TO.C,C13*%
X8115000Y139930000D03*
X9665000Y139930000D03*
%TD*%
%TO.C,C13*%
X8115000Y96250000D03*
X9665000Y96250000D03*
%TD*%
%TO.C,C13*%
X8115000Y52570000D03*
X9665000Y52570000D03*
%TD*%
%TO.C,C1*%
X63733000Y138025000D03*
X65283000Y138025000D03*
%TD*%
%TO.C,C1*%
X63733000Y94345000D03*
X65283000Y94345000D03*
%TD*%
%TO.C,C1*%
X63733000Y50665000D03*
X65283000Y50665000D03*
%TD*%
%TO.C,C1*%
X63733000Y6985000D03*
X65283000Y6985000D03*
%TD*%
%TO.C,C1*%
X17005000Y138025000D03*
X18555000Y138025000D03*
%TD*%
%TO.C,C1*%
X17005000Y94345000D03*
X18555000Y94345000D03*
%TD*%
%TO.C,C1*%
X17005000Y50665000D03*
X18555000Y50665000D03*
%TD*%
D15*
%TO.C,R6*%
X82923000Y158535000D03*
X82923000Y156885000D03*
%TD*%
%TO.C,R6*%
X82923000Y114855000D03*
X82923000Y113205000D03*
%TD*%
%TO.C,R6*%
X82923000Y71175000D03*
X82923000Y69525000D03*
%TD*%
%TO.C,R6*%
X82923000Y27495000D03*
X82923000Y25845000D03*
%TD*%
%TO.C,R6*%
X36195000Y158535000D03*
X36195000Y156885000D03*
%TD*%
%TO.C,R6*%
X36195000Y114855000D03*
X36195000Y113205000D03*
%TD*%
%TO.C,R6*%
X36195000Y71175000D03*
X36195000Y69525000D03*
%TD*%
D16*
%TO.C,U1*%
X56568000Y150120100D03*
X55618000Y150120100D03*
X54668000Y150120100D03*
X54668000Y147519900D03*
X55618000Y147520000D03*
X56568000Y147519900D03*
%TD*%
%TO.C,U1*%
X56568000Y106440100D03*
X55618000Y106440100D03*
X54668000Y106440100D03*
X54668000Y103839900D03*
X55618000Y103840000D03*
X56568000Y103839900D03*
%TD*%
%TO.C,U1*%
X56568000Y62760100D03*
X55618000Y62760100D03*
X54668000Y62760100D03*
X54668000Y60159900D03*
X55618000Y60160000D03*
X56568000Y60159900D03*
%TD*%
%TO.C,U1*%
X56568000Y19080100D03*
X55618000Y19080100D03*
X54668000Y19080100D03*
X54668000Y16479900D03*
X55618000Y16480000D03*
X56568000Y16479900D03*
%TD*%
%TO.C,U1*%
X9840000Y150120100D03*
X8890000Y150120100D03*
X7940000Y150120100D03*
X7940000Y147519900D03*
X8890000Y147520000D03*
X9840000Y147519900D03*
%TD*%
%TO.C,U1*%
X9840000Y106440100D03*
X8890000Y106440100D03*
X7940000Y106440100D03*
X7940000Y103839900D03*
X8890000Y103840000D03*
X9840000Y103839900D03*
%TD*%
%TO.C,U1*%
X9840000Y62760100D03*
X8890000Y62760100D03*
X7940000Y62760100D03*
X7940000Y60159900D03*
X8890000Y60160000D03*
X9840000Y60159900D03*
%TD*%
D17*
%TO.C,J4*%
X54118000Y136120000D03*
X55118000Y136120000D03*
X56118000Y136120000D03*
X57118000Y136120000D03*
D18*
X58418000Y132445000D03*
X52818000Y132445000D03*
%TD*%
D17*
%TO.C,J4*%
X54118000Y92440000D03*
X55118000Y92440000D03*
X56118000Y92440000D03*
X57118000Y92440000D03*
D18*
X58418000Y88765000D03*
X52818000Y88765000D03*
%TD*%
D17*
%TO.C,J4*%
X54118000Y48760000D03*
X55118000Y48760000D03*
X56118000Y48760000D03*
X57118000Y48760000D03*
D18*
X58418000Y45085000D03*
X52818000Y45085000D03*
%TD*%
D17*
%TO.C,J4*%
X54118000Y5080000D03*
X55118000Y5080000D03*
X56118000Y5080000D03*
X57118000Y5080000D03*
D18*
X58418000Y1405000D03*
X52818000Y1405000D03*
%TD*%
D17*
%TO.C,J4*%
X7390000Y136120000D03*
X8390000Y136120000D03*
X9390000Y136120000D03*
X10390000Y136120000D03*
D18*
X11690000Y132445000D03*
X6090000Y132445000D03*
%TD*%
D17*
%TO.C,J4*%
X7390000Y92440000D03*
X8390000Y92440000D03*
X9390000Y92440000D03*
X10390000Y92440000D03*
D18*
X11690000Y88765000D03*
X6090000Y88765000D03*
%TD*%
D17*
%TO.C,J4*%
X7390000Y48760000D03*
X8390000Y48760000D03*
X9390000Y48760000D03*
X10390000Y48760000D03*
D18*
X11690000Y45085000D03*
X6090000Y45085000D03*
%TD*%
D19*
%TO.C,C6*%
X82288000Y152150000D03*
X82288000Y153110000D03*
%TD*%
%TO.C,C6*%
X82288000Y108470000D03*
X82288000Y109430000D03*
%TD*%
%TO.C,C6*%
X82288000Y64790000D03*
X82288000Y65750000D03*
%TD*%
%TO.C,C6*%
X82288000Y21110000D03*
X82288000Y22070000D03*
%TD*%
%TO.C,C6*%
X35560000Y152150000D03*
X35560000Y153110000D03*
%TD*%
%TO.C,C6*%
X35560000Y108470000D03*
X35560000Y109430000D03*
%TD*%
%TO.C,C6*%
X35560000Y64790000D03*
X35560000Y65750000D03*
%TD*%
D20*
%TO.C,C10*%
X60838000Y147232500D03*
X59288000Y147232500D03*
%TD*%
%TO.C,C10*%
X60838000Y103552500D03*
X59288000Y103552500D03*
%TD*%
%TO.C,C10*%
X60838000Y59872500D03*
X59288000Y59872500D03*
%TD*%
%TO.C,C10*%
X60838000Y16192500D03*
X59288000Y16192500D03*
%TD*%
%TO.C,C10*%
X14110000Y147232500D03*
X12560000Y147232500D03*
%TD*%
%TO.C,C10*%
X14110000Y103552500D03*
X12560000Y103552500D03*
%TD*%
%TO.C,C10*%
X14110000Y59872500D03*
X12560000Y59872500D03*
%TD*%
D21*
%TO.C,U4*%
X59388000Y144415000D03*
X59388000Y143065000D03*
X60738000Y144415000D03*
X60738000Y143065000D03*
D22*
X58100500Y144990000D03*
X58100500Y144490000D03*
X58100500Y143990000D03*
X58100500Y143490000D03*
X58100500Y142990000D03*
X58100500Y142490000D03*
D23*
X58813000Y141777500D03*
X59313000Y141777500D03*
X59813000Y141777500D03*
X60313000Y141777500D03*
X60813000Y141777500D03*
X61313000Y141777500D03*
D22*
X62025500Y142490000D03*
X62025500Y142990000D03*
X62025500Y143490000D03*
X62025500Y143990000D03*
X62025500Y144490000D03*
X62025500Y144990000D03*
D23*
X61313000Y145702500D03*
X60813000Y145702500D03*
X60313000Y145702500D03*
X59813000Y145702500D03*
X59313000Y145702500D03*
X58813000Y145702500D03*
%TD*%
D21*
%TO.C,U4*%
X59388000Y100735000D03*
X59388000Y99385000D03*
X60738000Y100735000D03*
X60738000Y99385000D03*
D22*
X58100500Y101310000D03*
X58100500Y100810000D03*
X58100500Y100310000D03*
X58100500Y99810000D03*
X58100500Y99310000D03*
X58100500Y98810000D03*
D23*
X58813000Y98097500D03*
X59313000Y98097500D03*
X59813000Y98097500D03*
X60313000Y98097500D03*
X60813000Y98097500D03*
X61313000Y98097500D03*
D22*
X62025500Y98810000D03*
X62025500Y99310000D03*
X62025500Y99810000D03*
X62025500Y100310000D03*
X62025500Y100810000D03*
X62025500Y101310000D03*
D23*
X61313000Y102022500D03*
X60813000Y102022500D03*
X60313000Y102022500D03*
X59813000Y102022500D03*
X59313000Y102022500D03*
X58813000Y102022500D03*
%TD*%
D21*
%TO.C,U4*%
X59388000Y57055000D03*
X59388000Y55705000D03*
X60738000Y57055000D03*
X60738000Y55705000D03*
D22*
X58100500Y57630000D03*
X58100500Y57130000D03*
X58100500Y56630000D03*
X58100500Y56130000D03*
X58100500Y55630000D03*
X58100500Y55130000D03*
D23*
X58813000Y54417500D03*
X59313000Y54417500D03*
X59813000Y54417500D03*
X60313000Y54417500D03*
X60813000Y54417500D03*
X61313000Y54417500D03*
D22*
X62025500Y55130000D03*
X62025500Y55630000D03*
X62025500Y56130000D03*
X62025500Y56630000D03*
X62025500Y57130000D03*
X62025500Y57630000D03*
D23*
X61313000Y58342500D03*
X60813000Y58342500D03*
X60313000Y58342500D03*
X59813000Y58342500D03*
X59313000Y58342500D03*
X58813000Y58342500D03*
%TD*%
D21*
%TO.C,U4*%
X59388000Y13375000D03*
X59388000Y12025000D03*
X60738000Y13375000D03*
X60738000Y12025000D03*
D22*
X58100500Y13950000D03*
X58100500Y13450000D03*
X58100500Y12950000D03*
X58100500Y12450000D03*
X58100500Y11950000D03*
X58100500Y11450000D03*
D23*
X58813000Y10737500D03*
X59313000Y10737500D03*
X59813000Y10737500D03*
X60313000Y10737500D03*
X60813000Y10737500D03*
X61313000Y10737500D03*
D22*
X62025500Y11450000D03*
X62025500Y11950000D03*
X62025500Y12450000D03*
X62025500Y12950000D03*
X62025500Y13450000D03*
X62025500Y13950000D03*
D23*
X61313000Y14662500D03*
X60813000Y14662500D03*
X60313000Y14662500D03*
X59813000Y14662500D03*
X59313000Y14662500D03*
X58813000Y14662500D03*
%TD*%
D21*
%TO.C,U4*%
X12660000Y144415000D03*
X12660000Y143065000D03*
X14010000Y144415000D03*
X14010000Y143065000D03*
D22*
X11372500Y144990000D03*
X11372500Y144490000D03*
X11372500Y143990000D03*
X11372500Y143490000D03*
X11372500Y142990000D03*
X11372500Y142490000D03*
D23*
X12085000Y141777500D03*
X12585000Y141777500D03*
X13085000Y141777500D03*
X13585000Y141777500D03*
X14085000Y141777500D03*
X14585000Y141777500D03*
D22*
X15297500Y142490000D03*
X15297500Y142990000D03*
X15297500Y143490000D03*
X15297500Y143990000D03*
X15297500Y144490000D03*
X15297500Y144990000D03*
D23*
X14585000Y145702500D03*
X14085000Y145702500D03*
X13585000Y145702500D03*
X13085000Y145702500D03*
X12585000Y145702500D03*
X12085000Y145702500D03*
%TD*%
D21*
%TO.C,U4*%
X12660000Y100735000D03*
X12660000Y99385000D03*
X14010000Y100735000D03*
X14010000Y99385000D03*
D22*
X11372500Y101310000D03*
X11372500Y100810000D03*
X11372500Y100310000D03*
X11372500Y99810000D03*
X11372500Y99310000D03*
X11372500Y98810000D03*
D23*
X12085000Y98097500D03*
X12585000Y98097500D03*
X13085000Y98097500D03*
X13585000Y98097500D03*
X14085000Y98097500D03*
X14585000Y98097500D03*
D22*
X15297500Y98810000D03*
X15297500Y99310000D03*
X15297500Y99810000D03*
X15297500Y100310000D03*
X15297500Y100810000D03*
X15297500Y101310000D03*
D23*
X14585000Y102022500D03*
X14085000Y102022500D03*
X13585000Y102022500D03*
X13085000Y102022500D03*
X12585000Y102022500D03*
X12085000Y102022500D03*
%TD*%
D21*
%TO.C,U4*%
X12660000Y57055000D03*
X12660000Y55705000D03*
X14010000Y57055000D03*
X14010000Y55705000D03*
D22*
X11372500Y57630000D03*
X11372500Y57130000D03*
X11372500Y56630000D03*
X11372500Y56130000D03*
X11372500Y55630000D03*
X11372500Y55130000D03*
D23*
X12085000Y54417500D03*
X12585000Y54417500D03*
X13085000Y54417500D03*
X13585000Y54417500D03*
X14085000Y54417500D03*
X14585000Y54417500D03*
D22*
X15297500Y55130000D03*
X15297500Y55630000D03*
X15297500Y56130000D03*
X15297500Y56630000D03*
X15297500Y57130000D03*
X15297500Y57630000D03*
D23*
X14585000Y58342500D03*
X14085000Y58342500D03*
X13585000Y58342500D03*
X13085000Y58342500D03*
X12585000Y58342500D03*
X12085000Y58342500D03*
%TD*%
D14*
%TO.C,C7*%
X59288000Y139930000D03*
X60838000Y139930000D03*
%TD*%
%TO.C,C7*%
X59288000Y96250000D03*
X60838000Y96250000D03*
%TD*%
%TO.C,C7*%
X59288000Y52570000D03*
X60838000Y52570000D03*
%TD*%
%TO.C,C7*%
X59288000Y8890000D03*
X60838000Y8890000D03*
%TD*%
%TO.C,C7*%
X12560000Y139930000D03*
X14110000Y139930000D03*
%TD*%
%TO.C,C7*%
X12560000Y96250000D03*
X14110000Y96250000D03*
%TD*%
%TO.C,C7*%
X12560000Y52570000D03*
X14110000Y52570000D03*
%TD*%
D13*
%TO.C,D6*%
X67048000Y140425000D03*
X67048000Y141975000D03*
%TD*%
%TO.C,D6*%
X67048000Y96745000D03*
X67048000Y98295000D03*
%TD*%
%TO.C,D6*%
X67048000Y53065000D03*
X67048000Y54615000D03*
%TD*%
%TO.C,D6*%
X67048000Y9385000D03*
X67048000Y10935000D03*
%TD*%
%TO.C,D6*%
X20320000Y140425000D03*
X20320000Y141975000D03*
%TD*%
%TO.C,D6*%
X20320000Y96745000D03*
X20320000Y98295000D03*
%TD*%
%TO.C,D6*%
X20320000Y53065000D03*
X20320000Y54615000D03*
%TD*%
D24*
%TO.C,F1*%
X55618000Y142340000D03*
X55618000Y145140000D03*
%TD*%
%TO.C,F1*%
X55618000Y98660000D03*
X55618000Y101460000D03*
%TD*%
%TO.C,F1*%
X55618000Y54980000D03*
X55618000Y57780000D03*
%TD*%
%TO.C,F1*%
X55618000Y11300000D03*
X55618000Y14100000D03*
%TD*%
%TO.C,F1*%
X8890000Y142340000D03*
X8890000Y145140000D03*
%TD*%
%TO.C,F1*%
X8890000Y98660000D03*
X8890000Y101460000D03*
%TD*%
%TO.C,F1*%
X8890000Y54980000D03*
X8890000Y57780000D03*
%TD*%
D20*
%TO.C,C8*%
X65283000Y148185000D03*
X63733000Y148185000D03*
%TD*%
%TO.C,C8*%
X65283000Y104505000D03*
X63733000Y104505000D03*
%TD*%
%TO.C,C8*%
X65283000Y60825000D03*
X63733000Y60825000D03*
%TD*%
%TO.C,C8*%
X65283000Y17145000D03*
X63733000Y17145000D03*
%TD*%
%TO.C,C8*%
X18555000Y148185000D03*
X17005000Y148185000D03*
%TD*%
%TO.C,C8*%
X18555000Y104505000D03*
X17005000Y104505000D03*
%TD*%
%TO.C,C8*%
X18555000Y60825000D03*
X17005000Y60825000D03*
%TD*%
D13*
%TO.C,C4*%
X84828000Y156935000D03*
X84828000Y158485000D03*
%TD*%
%TO.C,C4*%
X84828000Y113255000D03*
X84828000Y114805000D03*
%TD*%
%TO.C,C4*%
X84828000Y69575000D03*
X84828000Y71125000D03*
%TD*%
%TO.C,C4*%
X84828000Y25895000D03*
X84828000Y27445000D03*
%TD*%
%TO.C,C4*%
X38100000Y156935000D03*
X38100000Y158485000D03*
%TD*%
%TO.C,C4*%
X38100000Y113255000D03*
X38100000Y114805000D03*
%TD*%
%TO.C,C4*%
X38100000Y69575000D03*
X38100000Y71125000D03*
%TD*%
D16*
%TO.C,U2*%
X63558000Y139899900D03*
X64508000Y139899900D03*
X65458000Y139899900D03*
X65458000Y142500100D03*
X63558000Y142500100D03*
%TD*%
%TO.C,U2*%
X63558000Y96219900D03*
X64508000Y96219900D03*
X65458000Y96219900D03*
X65458000Y98820100D03*
X63558000Y98820100D03*
%TD*%
%TO.C,U2*%
X63558000Y52539900D03*
X64508000Y52539900D03*
X65458000Y52539900D03*
X65458000Y55140100D03*
X63558000Y55140100D03*
%TD*%
%TO.C,U2*%
X63558000Y8859900D03*
X64508000Y8859900D03*
X65458000Y8859900D03*
X65458000Y11460100D03*
X63558000Y11460100D03*
%TD*%
%TO.C,U2*%
X16830000Y139899900D03*
X17780000Y139899900D03*
X18730000Y139899900D03*
X18730000Y142500100D03*
X16830000Y142500100D03*
%TD*%
%TO.C,U2*%
X16830000Y96219900D03*
X17780000Y96219900D03*
X18730000Y96219900D03*
X18730000Y98820100D03*
X16830000Y98820100D03*
%TD*%
%TO.C,U2*%
X16830000Y52539900D03*
X17780000Y52539900D03*
X18730000Y52539900D03*
X18730000Y55140100D03*
X16830000Y55140100D03*
%TD*%
D25*
%TO.C,U3*%
X79083000Y144995000D03*
X79083000Y146095000D03*
X79083000Y147195000D03*
X79083000Y148295000D03*
X79083000Y149395000D03*
X79083000Y150495000D03*
X79083000Y151595000D03*
X79083000Y154595000D03*
X79083000Y155695000D03*
X79083000Y156795000D03*
X79083000Y157895000D03*
X79083000Y158995000D03*
X68983000Y158995000D03*
X68983000Y157895000D03*
X68983000Y156795000D03*
X68983000Y155695000D03*
X68983000Y154595000D03*
X68983000Y151595000D03*
X68983000Y150495000D03*
X68983000Y149395000D03*
X68983000Y148295000D03*
X68983000Y147195000D03*
X68983000Y146095000D03*
X68983000Y144995000D03*
D26*
X77033000Y144895000D03*
D27*
X77033000Y146295000D03*
X77033000Y147695000D03*
X77033000Y149095000D03*
X77033000Y150495000D03*
X77033000Y151995000D03*
X77033000Y153395000D03*
X77033000Y154795000D03*
X77033000Y156195000D03*
X77033000Y157595000D03*
X77033000Y158995000D03*
X75533000Y144895000D03*
X75533000Y146295000D03*
X75533000Y147695000D03*
X75533000Y149095000D03*
X75533000Y150495000D03*
X75533000Y151995000D03*
X75533000Y153395000D03*
X75533000Y154795000D03*
X75533000Y156195000D03*
X75533000Y157595000D03*
X75533000Y158995000D03*
X74033000Y144895000D03*
X74033000Y146295000D03*
X74033000Y147695000D03*
X74033000Y149095000D03*
X74033000Y150495000D03*
X74033000Y151995000D03*
X74033000Y153395000D03*
X74033000Y154795000D03*
X74033000Y156195000D03*
X74033000Y157595000D03*
X74033000Y158995000D03*
X72533000Y144895000D03*
X72533000Y146295000D03*
X72533000Y147695000D03*
X72533000Y149095000D03*
X72533000Y150495000D03*
X72533000Y151995000D03*
X72533000Y153395000D03*
X72533000Y154795000D03*
X72533000Y156195000D03*
X72533000Y157595000D03*
X72533000Y158995000D03*
X71033000Y144895000D03*
X71033000Y146295000D03*
X71033000Y147695000D03*
X71033000Y149095000D03*
X71033000Y150495000D03*
X71033000Y151995000D03*
X71033000Y153395000D03*
X71033000Y154795000D03*
X71033000Y156195000D03*
X71033000Y157595000D03*
X71033000Y158995000D03*
%TD*%
D25*
%TO.C,U3*%
X79083000Y101315000D03*
X79083000Y102415000D03*
X79083000Y103515000D03*
X79083000Y104615000D03*
X79083000Y105715000D03*
X79083000Y106815000D03*
X79083000Y107915000D03*
X79083000Y110915000D03*
X79083000Y112015000D03*
X79083000Y113115000D03*
X79083000Y114215000D03*
X79083000Y115315000D03*
X68983000Y115315000D03*
X68983000Y114215000D03*
X68983000Y113115000D03*
X68983000Y112015000D03*
X68983000Y110915000D03*
X68983000Y107915000D03*
X68983000Y106815000D03*
X68983000Y105715000D03*
X68983000Y104615000D03*
X68983000Y103515000D03*
X68983000Y102415000D03*
X68983000Y101315000D03*
D26*
X77033000Y101215000D03*
D27*
X77033000Y102615000D03*
X77033000Y104015000D03*
X77033000Y105415000D03*
X77033000Y106815000D03*
X77033000Y108315000D03*
X77033000Y109715000D03*
X77033000Y111115000D03*
X77033000Y112515000D03*
X77033000Y113915000D03*
X77033000Y115315000D03*
X75533000Y101215000D03*
X75533000Y102615000D03*
X75533000Y104015000D03*
X75533000Y105415000D03*
X75533000Y106815000D03*
X75533000Y108315000D03*
X75533000Y109715000D03*
X75533000Y111115000D03*
X75533000Y112515000D03*
X75533000Y113915000D03*
X75533000Y115315000D03*
X74033000Y101215000D03*
X74033000Y102615000D03*
X74033000Y104015000D03*
X74033000Y105415000D03*
X74033000Y106815000D03*
X74033000Y108315000D03*
X74033000Y109715000D03*
X74033000Y111115000D03*
X74033000Y112515000D03*
X74033000Y113915000D03*
X74033000Y115315000D03*
X72533000Y101215000D03*
X72533000Y102615000D03*
X72533000Y104015000D03*
X72533000Y105415000D03*
X72533000Y106815000D03*
X72533000Y108315000D03*
X72533000Y109715000D03*
X72533000Y111115000D03*
X72533000Y112515000D03*
X72533000Y113915000D03*
X72533000Y115315000D03*
X71033000Y101215000D03*
X71033000Y102615000D03*
X71033000Y104015000D03*
X71033000Y105415000D03*
X71033000Y106815000D03*
X71033000Y108315000D03*
X71033000Y109715000D03*
X71033000Y111115000D03*
X71033000Y112515000D03*
X71033000Y113915000D03*
X71033000Y115315000D03*
%TD*%
D25*
%TO.C,U3*%
X79083000Y57635000D03*
X79083000Y58735000D03*
X79083000Y59835000D03*
X79083000Y60935000D03*
X79083000Y62035000D03*
X79083000Y63135000D03*
X79083000Y64235000D03*
X79083000Y67235000D03*
X79083000Y68335000D03*
X79083000Y69435000D03*
X79083000Y70535000D03*
X79083000Y71635000D03*
X68983000Y71635000D03*
X68983000Y70535000D03*
X68983000Y69435000D03*
X68983000Y68335000D03*
X68983000Y67235000D03*
X68983000Y64235000D03*
X68983000Y63135000D03*
X68983000Y62035000D03*
X68983000Y60935000D03*
X68983000Y59835000D03*
X68983000Y58735000D03*
X68983000Y57635000D03*
D26*
X77033000Y57535000D03*
D27*
X77033000Y58935000D03*
X77033000Y60335000D03*
X77033000Y61735000D03*
X77033000Y63135000D03*
X77033000Y64635000D03*
X77033000Y66035000D03*
X77033000Y67435000D03*
X77033000Y68835000D03*
X77033000Y70235000D03*
X77033000Y71635000D03*
X75533000Y57535000D03*
X75533000Y58935000D03*
X75533000Y60335000D03*
X75533000Y61735000D03*
X75533000Y63135000D03*
X75533000Y64635000D03*
X75533000Y66035000D03*
X75533000Y67435000D03*
X75533000Y68835000D03*
X75533000Y70235000D03*
X75533000Y71635000D03*
X74033000Y57535000D03*
X74033000Y58935000D03*
X74033000Y60335000D03*
X74033000Y61735000D03*
X74033000Y63135000D03*
X74033000Y64635000D03*
X74033000Y66035000D03*
X74033000Y67435000D03*
X74033000Y68835000D03*
X74033000Y70235000D03*
X74033000Y71635000D03*
X72533000Y57535000D03*
X72533000Y58935000D03*
X72533000Y60335000D03*
X72533000Y61735000D03*
X72533000Y63135000D03*
X72533000Y64635000D03*
X72533000Y66035000D03*
X72533000Y67435000D03*
X72533000Y68835000D03*
X72533000Y70235000D03*
X72533000Y71635000D03*
X71033000Y57535000D03*
X71033000Y58935000D03*
X71033000Y60335000D03*
X71033000Y61735000D03*
X71033000Y63135000D03*
X71033000Y64635000D03*
X71033000Y66035000D03*
X71033000Y67435000D03*
X71033000Y68835000D03*
X71033000Y70235000D03*
X71033000Y71635000D03*
%TD*%
D25*
%TO.C,U3*%
X79083000Y13955000D03*
X79083000Y15055000D03*
X79083000Y16155000D03*
X79083000Y17255000D03*
X79083000Y18355000D03*
X79083000Y19455000D03*
X79083000Y20555000D03*
X79083000Y23555000D03*
X79083000Y24655000D03*
X79083000Y25755000D03*
X79083000Y26855000D03*
X79083000Y27955000D03*
X68983000Y27955000D03*
X68983000Y26855000D03*
X68983000Y25755000D03*
X68983000Y24655000D03*
X68983000Y23555000D03*
X68983000Y20555000D03*
X68983000Y19455000D03*
X68983000Y18355000D03*
X68983000Y17255000D03*
X68983000Y16155000D03*
X68983000Y15055000D03*
X68983000Y13955000D03*
D26*
X77033000Y13855000D03*
D27*
X77033000Y15255000D03*
X77033000Y16655000D03*
X77033000Y18055000D03*
X77033000Y19455000D03*
X77033000Y20955000D03*
X77033000Y22355000D03*
X77033000Y23755000D03*
X77033000Y25155000D03*
X77033000Y26555000D03*
X77033000Y27955000D03*
X75533000Y13855000D03*
X75533000Y15255000D03*
X75533000Y16655000D03*
X75533000Y18055000D03*
X75533000Y19455000D03*
X75533000Y20955000D03*
X75533000Y22355000D03*
X75533000Y23755000D03*
X75533000Y25155000D03*
X75533000Y26555000D03*
X75533000Y27955000D03*
X74033000Y13855000D03*
X74033000Y15255000D03*
X74033000Y16655000D03*
X74033000Y18055000D03*
X74033000Y19455000D03*
X74033000Y20955000D03*
X74033000Y22355000D03*
X74033000Y23755000D03*
X74033000Y25155000D03*
X74033000Y26555000D03*
X74033000Y27955000D03*
X72533000Y13855000D03*
X72533000Y15255000D03*
X72533000Y16655000D03*
X72533000Y18055000D03*
X72533000Y19455000D03*
X72533000Y20955000D03*
X72533000Y22355000D03*
X72533000Y23755000D03*
X72533000Y25155000D03*
X72533000Y26555000D03*
X72533000Y27955000D03*
X71033000Y13855000D03*
X71033000Y15255000D03*
X71033000Y16655000D03*
X71033000Y18055000D03*
X71033000Y19455000D03*
X71033000Y20955000D03*
X71033000Y22355000D03*
X71033000Y23755000D03*
X71033000Y25155000D03*
X71033000Y26555000D03*
X71033000Y27955000D03*
%TD*%
D25*
%TO.C,U3*%
X32355000Y144995000D03*
X32355000Y146095000D03*
X32355000Y147195000D03*
X32355000Y148295000D03*
X32355000Y149395000D03*
X32355000Y150495000D03*
X32355000Y151595000D03*
X32355000Y154595000D03*
X32355000Y155695000D03*
X32355000Y156795000D03*
X32355000Y157895000D03*
X32355000Y158995000D03*
X22255000Y158995000D03*
X22255000Y157895000D03*
X22255000Y156795000D03*
X22255000Y155695000D03*
X22255000Y154595000D03*
X22255000Y151595000D03*
X22255000Y150495000D03*
X22255000Y149395000D03*
X22255000Y148295000D03*
X22255000Y147195000D03*
X22255000Y146095000D03*
X22255000Y144995000D03*
D26*
X30305000Y144895000D03*
D27*
X30305000Y146295000D03*
X30305000Y147695000D03*
X30305000Y149095000D03*
X30305000Y150495000D03*
X30305000Y151995000D03*
X30305000Y153395000D03*
X30305000Y154795000D03*
X30305000Y156195000D03*
X30305000Y157595000D03*
X30305000Y158995000D03*
X28805000Y144895000D03*
X28805000Y146295000D03*
X28805000Y147695000D03*
X28805000Y149095000D03*
X28805000Y150495000D03*
X28805000Y151995000D03*
X28805000Y153395000D03*
X28805000Y154795000D03*
X28805000Y156195000D03*
X28805000Y157595000D03*
X28805000Y158995000D03*
X27305000Y144895000D03*
X27305000Y146295000D03*
X27305000Y147695000D03*
X27305000Y149095000D03*
X27305000Y150495000D03*
X27305000Y151995000D03*
X27305000Y153395000D03*
X27305000Y154795000D03*
X27305000Y156195000D03*
X27305000Y157595000D03*
X27305000Y158995000D03*
X25805000Y144895000D03*
X25805000Y146295000D03*
X25805000Y147695000D03*
X25805000Y149095000D03*
X25805000Y150495000D03*
X25805000Y151995000D03*
X25805000Y153395000D03*
X25805000Y154795000D03*
X25805000Y156195000D03*
X25805000Y157595000D03*
X25805000Y158995000D03*
X24305000Y144895000D03*
X24305000Y146295000D03*
X24305000Y147695000D03*
X24305000Y149095000D03*
X24305000Y150495000D03*
X24305000Y151995000D03*
X24305000Y153395000D03*
X24305000Y154795000D03*
X24305000Y156195000D03*
X24305000Y157595000D03*
X24305000Y158995000D03*
%TD*%
D25*
%TO.C,U3*%
X32355000Y101315000D03*
X32355000Y102415000D03*
X32355000Y103515000D03*
X32355000Y104615000D03*
X32355000Y105715000D03*
X32355000Y106815000D03*
X32355000Y107915000D03*
X32355000Y110915000D03*
X32355000Y112015000D03*
X32355000Y113115000D03*
X32355000Y114215000D03*
X32355000Y115315000D03*
X22255000Y115315000D03*
X22255000Y114215000D03*
X22255000Y113115000D03*
X22255000Y112015000D03*
X22255000Y110915000D03*
X22255000Y107915000D03*
X22255000Y106815000D03*
X22255000Y105715000D03*
X22255000Y104615000D03*
X22255000Y103515000D03*
X22255000Y102415000D03*
X22255000Y101315000D03*
D26*
X30305000Y101215000D03*
D27*
X30305000Y102615000D03*
X30305000Y104015000D03*
X30305000Y105415000D03*
X30305000Y106815000D03*
X30305000Y108315000D03*
X30305000Y109715000D03*
X30305000Y111115000D03*
X30305000Y112515000D03*
X30305000Y113915000D03*
X30305000Y115315000D03*
X28805000Y101215000D03*
X28805000Y102615000D03*
X28805000Y104015000D03*
X28805000Y105415000D03*
X28805000Y106815000D03*
X28805000Y108315000D03*
X28805000Y109715000D03*
X28805000Y111115000D03*
X28805000Y112515000D03*
X28805000Y113915000D03*
X28805000Y115315000D03*
X27305000Y101215000D03*
X27305000Y102615000D03*
X27305000Y104015000D03*
X27305000Y105415000D03*
X27305000Y106815000D03*
X27305000Y108315000D03*
X27305000Y109715000D03*
X27305000Y111115000D03*
X27305000Y112515000D03*
X27305000Y113915000D03*
X27305000Y115315000D03*
X25805000Y101215000D03*
X25805000Y102615000D03*
X25805000Y104015000D03*
X25805000Y105415000D03*
X25805000Y106815000D03*
X25805000Y108315000D03*
X25805000Y109715000D03*
X25805000Y111115000D03*
X25805000Y112515000D03*
X25805000Y113915000D03*
X25805000Y115315000D03*
X24305000Y101215000D03*
X24305000Y102615000D03*
X24305000Y104015000D03*
X24305000Y105415000D03*
X24305000Y106815000D03*
X24305000Y108315000D03*
X24305000Y109715000D03*
X24305000Y111115000D03*
X24305000Y112515000D03*
X24305000Y113915000D03*
X24305000Y115315000D03*
%TD*%
D25*
%TO.C,U3*%
X32355000Y57635000D03*
X32355000Y58735000D03*
X32355000Y59835000D03*
X32355000Y60935000D03*
X32355000Y62035000D03*
X32355000Y63135000D03*
X32355000Y64235000D03*
X32355000Y67235000D03*
X32355000Y68335000D03*
X32355000Y69435000D03*
X32355000Y70535000D03*
X32355000Y71635000D03*
X22255000Y71635000D03*
X22255000Y70535000D03*
X22255000Y69435000D03*
X22255000Y68335000D03*
X22255000Y67235000D03*
X22255000Y64235000D03*
X22255000Y63135000D03*
X22255000Y62035000D03*
X22255000Y60935000D03*
X22255000Y59835000D03*
X22255000Y58735000D03*
X22255000Y57635000D03*
D26*
X30305000Y57535000D03*
D27*
X30305000Y58935000D03*
X30305000Y60335000D03*
X30305000Y61735000D03*
X30305000Y63135000D03*
X30305000Y64635000D03*
X30305000Y66035000D03*
X30305000Y67435000D03*
X30305000Y68835000D03*
X30305000Y70235000D03*
X30305000Y71635000D03*
X28805000Y57535000D03*
X28805000Y58935000D03*
X28805000Y60335000D03*
X28805000Y61735000D03*
X28805000Y63135000D03*
X28805000Y64635000D03*
X28805000Y66035000D03*
X28805000Y67435000D03*
X28805000Y68835000D03*
X28805000Y70235000D03*
X28805000Y71635000D03*
X27305000Y57535000D03*
X27305000Y58935000D03*
X27305000Y60335000D03*
X27305000Y61735000D03*
X27305000Y63135000D03*
X27305000Y64635000D03*
X27305000Y66035000D03*
X27305000Y67435000D03*
X27305000Y68835000D03*
X27305000Y70235000D03*
X27305000Y71635000D03*
X25805000Y57535000D03*
X25805000Y58935000D03*
X25805000Y60335000D03*
X25805000Y61735000D03*
X25805000Y63135000D03*
X25805000Y64635000D03*
X25805000Y66035000D03*
X25805000Y67435000D03*
X25805000Y68835000D03*
X25805000Y70235000D03*
X25805000Y71635000D03*
X24305000Y57535000D03*
X24305000Y58935000D03*
X24305000Y60335000D03*
X24305000Y61735000D03*
X24305000Y63135000D03*
X24305000Y64635000D03*
X24305000Y66035000D03*
X24305000Y67435000D03*
X24305000Y68835000D03*
X24305000Y70235000D03*
X24305000Y71635000D03*
%TD*%
D17*
%TO.C,J7*%
X57118000Y169140000D03*
X56118000Y169140000D03*
X55118000Y169140000D03*
X54118000Y169140000D03*
D18*
X52818000Y172815000D03*
X58418000Y172815000D03*
%TD*%
D17*
%TO.C,J7*%
X57118000Y125460000D03*
X56118000Y125460000D03*
X55118000Y125460000D03*
X54118000Y125460000D03*
D18*
X52818000Y129135000D03*
X58418000Y129135000D03*
%TD*%
D17*
%TO.C,J7*%
X57118000Y81780000D03*
X56118000Y81780000D03*
X55118000Y81780000D03*
X54118000Y81780000D03*
D18*
X52818000Y85455000D03*
X58418000Y85455000D03*
%TD*%
D17*
%TO.C,J7*%
X57118000Y38100000D03*
X56118000Y38100000D03*
X55118000Y38100000D03*
X54118000Y38100000D03*
D18*
X52818000Y41775000D03*
X58418000Y41775000D03*
%TD*%
D17*
%TO.C,J7*%
X10390000Y169140000D03*
X9390000Y169140000D03*
X8390000Y169140000D03*
X7390000Y169140000D03*
D18*
X6090000Y172815000D03*
X11690000Y172815000D03*
%TD*%
D17*
%TO.C,J7*%
X10390000Y125460000D03*
X9390000Y125460000D03*
X8390000Y125460000D03*
X7390000Y125460000D03*
D18*
X6090000Y129135000D03*
X11690000Y129135000D03*
%TD*%
D17*
%TO.C,J7*%
X10390000Y81780000D03*
X9390000Y81780000D03*
X8390000Y81780000D03*
X7390000Y81780000D03*
D18*
X6090000Y85455000D03*
X11690000Y85455000D03*
%TD*%
D28*
%TO.C,R1*%
X50728000Y138025000D03*
X49078000Y138025000D03*
%TD*%
%TO.C,R1*%
X50728000Y94345000D03*
X49078000Y94345000D03*
%TD*%
%TO.C,R1*%
X50728000Y50665000D03*
X49078000Y50665000D03*
%TD*%
%TO.C,R1*%
X50728000Y6985000D03*
X49078000Y6985000D03*
%TD*%
%TO.C,R1*%
X4000000Y138025000D03*
X2350000Y138025000D03*
%TD*%
%TO.C,R1*%
X4000000Y94345000D03*
X2350000Y94345000D03*
%TD*%
%TO.C,R1*%
X4000000Y50665000D03*
X2350000Y50665000D03*
%TD*%
D19*
%TO.C,D3*%
X82288000Y149610000D03*
X82288000Y150570000D03*
%TD*%
%TO.C,D3*%
X82288000Y105930000D03*
X82288000Y106890000D03*
%TD*%
%TO.C,D3*%
X82288000Y62250000D03*
X82288000Y63210000D03*
%TD*%
%TO.C,D3*%
X82288000Y18570000D03*
X82288000Y19530000D03*
%TD*%
%TO.C,D3*%
X35560000Y149610000D03*
X35560000Y150570000D03*
%TD*%
%TO.C,D3*%
X35560000Y105930000D03*
X35560000Y106890000D03*
%TD*%
%TO.C,D3*%
X35560000Y62250000D03*
X35560000Y63210000D03*
%TD*%
D29*
%TO.C,D2*%
X74820500Y162155000D03*
X73245500Y162155000D03*
%TD*%
%TO.C,D2*%
X74820500Y118475000D03*
X73245500Y118475000D03*
%TD*%
%TO.C,D2*%
X74820500Y74795000D03*
X73245500Y74795000D03*
%TD*%
%TO.C,D2*%
X74820500Y31115000D03*
X73245500Y31115000D03*
%TD*%
%TO.C,D2*%
X28092500Y162155000D03*
X26517500Y162155000D03*
%TD*%
%TO.C,D2*%
X28092500Y118475000D03*
X26517500Y118475000D03*
%TD*%
%TO.C,D2*%
X28092500Y74795000D03*
X26517500Y74795000D03*
%TD*%
D14*
%TO.C,C2*%
X63733000Y144375000D03*
X65283000Y144375000D03*
%TD*%
%TO.C,C2*%
X63733000Y100695000D03*
X65283000Y100695000D03*
%TD*%
%TO.C,C2*%
X63733000Y57015000D03*
X65283000Y57015000D03*
%TD*%
%TO.C,C2*%
X63733000Y13335000D03*
X65283000Y13335000D03*
%TD*%
%TO.C,C2*%
X17005000Y144375000D03*
X18555000Y144375000D03*
%TD*%
%TO.C,C2*%
X17005000Y100695000D03*
X18555000Y100695000D03*
%TD*%
%TO.C,C2*%
X17005000Y57015000D03*
X18555000Y57015000D03*
%TD*%
D11*
%TO.C,R4*%
X69398000Y167235000D03*
X71048000Y167235000D03*
%TD*%
%TO.C,R4*%
X69398000Y123555000D03*
X71048000Y123555000D03*
%TD*%
%TO.C,R4*%
X69398000Y79875000D03*
X71048000Y79875000D03*
%TD*%
%TO.C,R4*%
X69398000Y36195000D03*
X71048000Y36195000D03*
%TD*%
%TO.C,R4*%
X22670000Y167235000D03*
X24320000Y167235000D03*
%TD*%
%TO.C,R4*%
X22670000Y123555000D03*
X24320000Y123555000D03*
%TD*%
%TO.C,R4*%
X22670000Y79875000D03*
X24320000Y79875000D03*
%TD*%
D29*
%TO.C,D1*%
X74820500Y167235000D03*
X73245500Y167235000D03*
%TD*%
%TO.C,D1*%
X74820500Y123555000D03*
X73245500Y123555000D03*
%TD*%
%TO.C,D1*%
X74820500Y79875000D03*
X73245500Y79875000D03*
%TD*%
%TO.C,D1*%
X74820500Y36195000D03*
X73245500Y36195000D03*
%TD*%
%TO.C,D1*%
X28092500Y167235000D03*
X26517500Y167235000D03*
%TD*%
%TO.C,D1*%
X28092500Y123555000D03*
X26517500Y123555000D03*
%TD*%
%TO.C,D1*%
X28092500Y79875000D03*
X26517500Y79875000D03*
%TD*%
D11*
%TO.C,R5*%
X69398000Y164695000D03*
X71048000Y164695000D03*
%TD*%
%TO.C,R5*%
X69398000Y121015000D03*
X71048000Y121015000D03*
%TD*%
%TO.C,R5*%
X69398000Y77335000D03*
X71048000Y77335000D03*
%TD*%
%TO.C,R5*%
X69398000Y33655000D03*
X71048000Y33655000D03*
%TD*%
%TO.C,R5*%
X22670000Y164695000D03*
X24320000Y164695000D03*
%TD*%
%TO.C,R5*%
X22670000Y121015000D03*
X24320000Y121015000D03*
%TD*%
%TO.C,R5*%
X22670000Y77335000D03*
X24320000Y77335000D03*
%TD*%
D28*
%TO.C,R2*%
X50728000Y149455000D03*
X49078000Y149455000D03*
%TD*%
%TO.C,R2*%
X50728000Y105775000D03*
X49078000Y105775000D03*
%TD*%
%TO.C,R2*%
X50728000Y62095000D03*
X49078000Y62095000D03*
%TD*%
%TO.C,R2*%
X50728000Y18415000D03*
X49078000Y18415000D03*
%TD*%
%TO.C,R2*%
X4000000Y149455000D03*
X2350000Y149455000D03*
%TD*%
%TO.C,R2*%
X4000000Y105775000D03*
X2350000Y105775000D03*
%TD*%
%TO.C,R2*%
X4000000Y62095000D03*
X2350000Y62095000D03*
%TD*%
D30*
%TO.C,J8*%
X85338000Y162185000D03*
X85338000Y163435000D03*
X85338000Y164685000D03*
X85338000Y165935000D03*
D31*
X88538000Y167785000D03*
X88538000Y160335000D03*
%TD*%
D30*
%TO.C,J8*%
X85338000Y118505000D03*
X85338000Y119755000D03*
X85338000Y121005000D03*
X85338000Y122255000D03*
D31*
X88538000Y124105000D03*
X88538000Y116655000D03*
%TD*%
D30*
%TO.C,J8*%
X85338000Y74825000D03*
X85338000Y76075000D03*
X85338000Y77325000D03*
X85338000Y78575000D03*
D31*
X88538000Y80425000D03*
X88538000Y72975000D03*
%TD*%
D30*
%TO.C,J8*%
X85338000Y31145000D03*
X85338000Y32395000D03*
X85338000Y33645000D03*
X85338000Y34895000D03*
D31*
X88538000Y36745000D03*
X88538000Y29295000D03*
%TD*%
D30*
%TO.C,J8*%
X38610000Y162185000D03*
X38610000Y163435000D03*
X38610000Y164685000D03*
X38610000Y165935000D03*
D31*
X41810000Y167785000D03*
X41810000Y160335000D03*
%TD*%
D30*
%TO.C,J8*%
X38610000Y118505000D03*
X38610000Y119755000D03*
X38610000Y121005000D03*
X38610000Y122255000D03*
D31*
X41810000Y124105000D03*
X41810000Y116655000D03*
%TD*%
D30*
%TO.C,J8*%
X38610000Y74825000D03*
X38610000Y76075000D03*
X38610000Y77325000D03*
X38610000Y78575000D03*
D31*
X41810000Y80425000D03*
X41810000Y72975000D03*
%TD*%
D32*
%TO.C,D5*%
X65658000Y153900000D03*
X63358000Y153900000D03*
%TD*%
%TO.C,D5*%
X65658000Y110220000D03*
X63358000Y110220000D03*
%TD*%
%TO.C,D5*%
X65658000Y66540000D03*
X63358000Y66540000D03*
%TD*%
%TO.C,D5*%
X65658000Y22860000D03*
X63358000Y22860000D03*
%TD*%
%TO.C,D5*%
X18930000Y153900000D03*
X16630000Y153900000D03*
%TD*%
%TO.C,D5*%
X18930000Y110220000D03*
X16630000Y110220000D03*
%TD*%
%TO.C,D5*%
X18930000Y66540000D03*
X16630000Y66540000D03*
%TD*%
D20*
%TO.C,C9*%
X65283000Y150090000D03*
X63733000Y150090000D03*
%TD*%
%TO.C,C9*%
X65283000Y106410000D03*
X63733000Y106410000D03*
%TD*%
%TO.C,C9*%
X65283000Y62730000D03*
X63733000Y62730000D03*
%TD*%
%TO.C,C9*%
X65283000Y19050000D03*
X63733000Y19050000D03*
%TD*%
%TO.C,C9*%
X18555000Y150090000D03*
X17005000Y150090000D03*
%TD*%
%TO.C,C9*%
X18555000Y106410000D03*
X17005000Y106410000D03*
%TD*%
%TO.C,C9*%
X18555000Y62730000D03*
X17005000Y62730000D03*
%TD*%
D33*
%TO.C,J1*%
X52738000Y144990000D03*
X52738000Y143990000D03*
X52738000Y143490000D03*
X52738000Y142490000D03*
X52738000Y141990000D03*
X52738000Y142990000D03*
X52738000Y144490000D03*
X52738000Y145490000D03*
D34*
X52738000Y146965000D03*
X52738000Y140515000D03*
D35*
X47983000Y148058000D03*
D36*
X52163000Y148058000D03*
X52163000Y139422000D03*
D35*
X47983000Y139422000D03*
D34*
X52738000Y146190000D03*
X52738000Y141290000D03*
%TD*%
D33*
%TO.C,J1*%
X52738000Y101310000D03*
X52738000Y100310000D03*
X52738000Y99810000D03*
X52738000Y98810000D03*
X52738000Y98310000D03*
X52738000Y99310000D03*
X52738000Y100810000D03*
X52738000Y101810000D03*
D34*
X52738000Y103285000D03*
X52738000Y96835000D03*
D35*
X47983000Y104378000D03*
D36*
X52163000Y104378000D03*
X52163000Y95742000D03*
D35*
X47983000Y95742000D03*
D34*
X52738000Y102510000D03*
X52738000Y97610000D03*
%TD*%
D33*
%TO.C,J1*%
X52738000Y57630000D03*
X52738000Y56630000D03*
X52738000Y56130000D03*
X52738000Y55130000D03*
X52738000Y54630000D03*
X52738000Y55630000D03*
X52738000Y57130000D03*
X52738000Y58130000D03*
D34*
X52738000Y59605000D03*
X52738000Y53155000D03*
D35*
X47983000Y60698000D03*
D36*
X52163000Y60698000D03*
X52163000Y52062000D03*
D35*
X47983000Y52062000D03*
D34*
X52738000Y58830000D03*
X52738000Y53930000D03*
%TD*%
D33*
%TO.C,J1*%
X52738000Y13950000D03*
X52738000Y12950000D03*
X52738000Y12450000D03*
X52738000Y11450000D03*
X52738000Y10950000D03*
X52738000Y11950000D03*
X52738000Y13450000D03*
X52738000Y14450000D03*
D34*
X52738000Y15925000D03*
X52738000Y9475000D03*
D35*
X47983000Y17018000D03*
D36*
X52163000Y17018000D03*
X52163000Y8382000D03*
D35*
X47983000Y8382000D03*
D34*
X52738000Y15150000D03*
X52738000Y10250000D03*
%TD*%
D33*
%TO.C,J1*%
X6010000Y144990000D03*
X6010000Y143990000D03*
X6010000Y143490000D03*
X6010000Y142490000D03*
X6010000Y141990000D03*
X6010000Y142990000D03*
X6010000Y144490000D03*
X6010000Y145490000D03*
D34*
X6010000Y146965000D03*
X6010000Y140515000D03*
D35*
X1255000Y148058000D03*
D36*
X5435000Y148058000D03*
X5435000Y139422000D03*
D35*
X1255000Y139422000D03*
D34*
X6010000Y146190000D03*
X6010000Y141290000D03*
%TD*%
D33*
%TO.C,J1*%
X6010000Y101310000D03*
X6010000Y100310000D03*
X6010000Y99810000D03*
X6010000Y98810000D03*
X6010000Y98310000D03*
X6010000Y99310000D03*
X6010000Y100810000D03*
X6010000Y101810000D03*
D34*
X6010000Y103285000D03*
X6010000Y96835000D03*
D35*
X1255000Y104378000D03*
D36*
X5435000Y104378000D03*
X5435000Y95742000D03*
D35*
X1255000Y95742000D03*
D34*
X6010000Y102510000D03*
X6010000Y97610000D03*
%TD*%
D33*
%TO.C,J1*%
X6010000Y57630000D03*
X6010000Y56630000D03*
X6010000Y56130000D03*
X6010000Y55130000D03*
X6010000Y54630000D03*
X6010000Y55630000D03*
X6010000Y57130000D03*
X6010000Y58130000D03*
D34*
X6010000Y59605000D03*
X6010000Y53155000D03*
D35*
X1255000Y60698000D03*
D36*
X5435000Y60698000D03*
X5435000Y52062000D03*
D35*
X1255000Y52062000D03*
D34*
X6010000Y58830000D03*
X6010000Y53930000D03*
%TD*%
D14*
%TO.C,C5*%
X63733000Y146280000D03*
X65283000Y146280000D03*
%TD*%
%TO.C,C5*%
X63733000Y102600000D03*
X65283000Y102600000D03*
%TD*%
%TO.C,C5*%
X63733000Y58920000D03*
X65283000Y58920000D03*
%TD*%
%TO.C,C5*%
X63733000Y15240000D03*
X65283000Y15240000D03*
%TD*%
%TO.C,C5*%
X17005000Y146280000D03*
X18555000Y146280000D03*
%TD*%
%TO.C,C5*%
X17005000Y102600000D03*
X18555000Y102600000D03*
%TD*%
%TO.C,C5*%
X17005000Y58920000D03*
X18555000Y58920000D03*
%TD*%
D20*
%TO.C,D7*%
X65283000Y155805000D03*
X63733000Y155805000D03*
%TD*%
%TO.C,D7*%
X65283000Y112125000D03*
X63733000Y112125000D03*
%TD*%
%TO.C,D7*%
X65283000Y68445000D03*
X63733000Y68445000D03*
%TD*%
%TO.C,D7*%
X65283000Y24765000D03*
X63733000Y24765000D03*
%TD*%
%TO.C,D7*%
X18555000Y155805000D03*
X17005000Y155805000D03*
%TD*%
%TO.C,D7*%
X18555000Y112125000D03*
X17005000Y112125000D03*
%TD*%
%TO.C,D7*%
X18555000Y68445000D03*
X17005000Y68445000D03*
%TD*%
D11*
%TO.C,R3*%
X69398000Y162155000D03*
X71048000Y162155000D03*
%TD*%
%TO.C,R3*%
X69398000Y118475000D03*
X71048000Y118475000D03*
%TD*%
%TO.C,R3*%
X69398000Y74795000D03*
X71048000Y74795000D03*
%TD*%
%TO.C,R3*%
X69398000Y31115000D03*
X71048000Y31115000D03*
%TD*%
%TO.C,R3*%
X22670000Y162155000D03*
X24320000Y162155000D03*
%TD*%
%TO.C,R3*%
X22670000Y118475000D03*
X24320000Y118475000D03*
%TD*%
%TO.C,R3*%
X22670000Y74795000D03*
X24320000Y74795000D03*
%TD*%
D37*
%TO.C,R8*%
X79748000Y163235000D03*
X79748000Y164885000D03*
%TD*%
%TO.C,R8*%
X79748000Y119555000D03*
X79748000Y121205000D03*
%TD*%
%TO.C,R8*%
X79748000Y75875000D03*
X79748000Y77525000D03*
%TD*%
%TO.C,R8*%
X79748000Y32195000D03*
X79748000Y33845000D03*
%TD*%
%TO.C,R8*%
X33020000Y163235000D03*
X33020000Y164885000D03*
%TD*%
%TO.C,R8*%
X33020000Y119555000D03*
X33020000Y121205000D03*
%TD*%
%TO.C,R8*%
X33020000Y75875000D03*
X33020000Y77525000D03*
%TD*%
D29*
%TO.C,D4*%
X74820500Y164695000D03*
X73245500Y164695000D03*
%TD*%
%TO.C,D4*%
X74820500Y121015000D03*
X73245500Y121015000D03*
%TD*%
%TO.C,D4*%
X74820500Y77335000D03*
X73245500Y77335000D03*
%TD*%
%TO.C,D4*%
X74820500Y33655000D03*
X73245500Y33655000D03*
%TD*%
%TO.C,D4*%
X28092500Y164695000D03*
X26517500Y164695000D03*
%TD*%
%TO.C,D4*%
X28092500Y121015000D03*
X26517500Y121015000D03*
%TD*%
%TO.C,D4*%
X28092500Y77335000D03*
X26517500Y77335000D03*
%TD*%
%TO.C,D4*%
X28092500Y33655000D03*
X26517500Y33655000D03*
%TD*%
D37*
%TO.C,R8*%
X33020000Y32195000D03*
X33020000Y33845000D03*
%TD*%
D11*
%TO.C,R3*%
X22670000Y31115000D03*
X24320000Y31115000D03*
%TD*%
D20*
%TO.C,D7*%
X18555000Y24765000D03*
X17005000Y24765000D03*
%TD*%
D14*
%TO.C,C5*%
X17005000Y15240000D03*
X18555000Y15240000D03*
%TD*%
D33*
%TO.C,J1*%
X6010000Y13950000D03*
X6010000Y12950000D03*
X6010000Y12450000D03*
X6010000Y11450000D03*
X6010000Y10950000D03*
X6010000Y11950000D03*
X6010000Y13450000D03*
X6010000Y14450000D03*
D34*
X6010000Y15925000D03*
X6010000Y9475000D03*
D35*
X1255000Y17018000D03*
D36*
X5435000Y17018000D03*
X5435000Y8382000D03*
D35*
X1255000Y8382000D03*
D34*
X6010000Y15150000D03*
X6010000Y10250000D03*
%TD*%
D20*
%TO.C,C9*%
X18555000Y19050000D03*
X17005000Y19050000D03*
%TD*%
D32*
%TO.C,D5*%
X18930000Y22860000D03*
X16630000Y22860000D03*
%TD*%
D30*
%TO.C,J8*%
X38610000Y31145000D03*
X38610000Y32395000D03*
X38610000Y33645000D03*
X38610000Y34895000D03*
D31*
X41810000Y36745000D03*
X41810000Y29295000D03*
%TD*%
D28*
%TO.C,R2*%
X4000000Y18415000D03*
X2350000Y18415000D03*
%TD*%
D11*
%TO.C,R5*%
X22670000Y33655000D03*
X24320000Y33655000D03*
%TD*%
D29*
%TO.C,D1*%
X28092500Y36195000D03*
X26517500Y36195000D03*
%TD*%
D11*
%TO.C,R4*%
X22670000Y36195000D03*
X24320000Y36195000D03*
%TD*%
D14*
%TO.C,C2*%
X17005000Y13335000D03*
X18555000Y13335000D03*
%TD*%
D29*
%TO.C,D2*%
X28092500Y31115000D03*
X26517500Y31115000D03*
%TD*%
D19*
%TO.C,D3*%
X35560000Y18570000D03*
X35560000Y19530000D03*
%TD*%
D28*
%TO.C,R1*%
X4000000Y6985000D03*
X2350000Y6985000D03*
%TD*%
D17*
%TO.C,J7*%
X10390000Y38100000D03*
X9390000Y38100000D03*
X8390000Y38100000D03*
X7390000Y38100000D03*
D18*
X6090000Y41775000D03*
X11690000Y41775000D03*
%TD*%
D25*
%TO.C,U3*%
X32355000Y13955000D03*
X32355000Y15055000D03*
X32355000Y16155000D03*
X32355000Y17255000D03*
X32355000Y18355000D03*
X32355000Y19455000D03*
X32355000Y20555000D03*
X32355000Y23555000D03*
X32355000Y24655000D03*
X32355000Y25755000D03*
X32355000Y26855000D03*
X32355000Y27955000D03*
X22255000Y27955000D03*
X22255000Y26855000D03*
X22255000Y25755000D03*
X22255000Y24655000D03*
X22255000Y23555000D03*
X22255000Y20555000D03*
X22255000Y19455000D03*
X22255000Y18355000D03*
X22255000Y17255000D03*
X22255000Y16155000D03*
X22255000Y15055000D03*
X22255000Y13955000D03*
D26*
X30305000Y13855000D03*
D27*
X30305000Y15255000D03*
X30305000Y16655000D03*
X30305000Y18055000D03*
X30305000Y19455000D03*
X30305000Y20955000D03*
X30305000Y22355000D03*
X30305000Y23755000D03*
X30305000Y25155000D03*
X30305000Y26555000D03*
X30305000Y27955000D03*
X28805000Y13855000D03*
X28805000Y15255000D03*
X28805000Y16655000D03*
X28805000Y18055000D03*
X28805000Y19455000D03*
X28805000Y20955000D03*
X28805000Y22355000D03*
X28805000Y23755000D03*
X28805000Y25155000D03*
X28805000Y26555000D03*
X28805000Y27955000D03*
X27305000Y13855000D03*
X27305000Y15255000D03*
X27305000Y16655000D03*
X27305000Y18055000D03*
X27305000Y19455000D03*
X27305000Y20955000D03*
X27305000Y22355000D03*
X27305000Y23755000D03*
X27305000Y25155000D03*
X27305000Y26555000D03*
X27305000Y27955000D03*
X25805000Y13855000D03*
X25805000Y15255000D03*
X25805000Y16655000D03*
X25805000Y18055000D03*
X25805000Y19455000D03*
X25805000Y20955000D03*
X25805000Y22355000D03*
X25805000Y23755000D03*
X25805000Y25155000D03*
X25805000Y26555000D03*
X25805000Y27955000D03*
X24305000Y13855000D03*
X24305000Y15255000D03*
X24305000Y16655000D03*
X24305000Y18055000D03*
X24305000Y19455000D03*
X24305000Y20955000D03*
X24305000Y22355000D03*
X24305000Y23755000D03*
X24305000Y25155000D03*
X24305000Y26555000D03*
X24305000Y27955000D03*
%TD*%
D16*
%TO.C,U2*%
X16830000Y8859900D03*
X17780000Y8859900D03*
X18730000Y8859900D03*
X18730000Y11460100D03*
X16830000Y11460100D03*
%TD*%
D13*
%TO.C,C4*%
X38100000Y25895000D03*
X38100000Y27445000D03*
%TD*%
D20*
%TO.C,C8*%
X18555000Y17145000D03*
X17005000Y17145000D03*
%TD*%
D24*
%TO.C,F1*%
X8890000Y11300000D03*
X8890000Y14100000D03*
%TD*%
D13*
%TO.C,D6*%
X20320000Y9385000D03*
X20320000Y10935000D03*
%TD*%
D14*
%TO.C,C7*%
X12560000Y8890000D03*
X14110000Y8890000D03*
%TD*%
D21*
%TO.C,U4*%
X12660000Y13375000D03*
X12660000Y12025000D03*
X14010000Y13375000D03*
X14010000Y12025000D03*
D22*
X11372500Y13950000D03*
X11372500Y13450000D03*
X11372500Y12950000D03*
X11372500Y12450000D03*
X11372500Y11950000D03*
X11372500Y11450000D03*
D23*
X12085000Y10737500D03*
X12585000Y10737500D03*
X13085000Y10737500D03*
X13585000Y10737500D03*
X14085000Y10737500D03*
X14585000Y10737500D03*
D22*
X15297500Y11450000D03*
X15297500Y11950000D03*
X15297500Y12450000D03*
X15297500Y12950000D03*
X15297500Y13450000D03*
X15297500Y13950000D03*
D23*
X14585000Y14662500D03*
X14085000Y14662500D03*
X13585000Y14662500D03*
X13085000Y14662500D03*
X12585000Y14662500D03*
X12085000Y14662500D03*
%TD*%
D20*
%TO.C,C10*%
X14110000Y16192500D03*
X12560000Y16192500D03*
%TD*%
D19*
%TO.C,C6*%
X35560000Y21110000D03*
X35560000Y22070000D03*
%TD*%
D17*
%TO.C,J4*%
X7390000Y5080000D03*
X8390000Y5080000D03*
X9390000Y5080000D03*
X10390000Y5080000D03*
D18*
X11690000Y1405000D03*
X6090000Y1405000D03*
%TD*%
D16*
%TO.C,U1*%
X9840000Y19080100D03*
X8890000Y19080100D03*
X7940000Y19080100D03*
X7940000Y16479900D03*
X8890000Y16480000D03*
X9840000Y16479900D03*
%TD*%
D15*
%TO.C,R6*%
X36195000Y27495000D03*
X36195000Y25845000D03*
%TD*%
D14*
%TO.C,C1*%
X17005000Y6985000D03*
X18555000Y6985000D03*
%TD*%
%TO.C,C13*%
X8115000Y8890000D03*
X9665000Y8890000D03*
%TD*%
D11*
%TO.C,R9*%
X12510000Y6985000D03*
X14160000Y6985000D03*
%TD*%
D13*
%TO.C,C3*%
X40005000Y25895000D03*
X40005000Y27445000D03*
%TD*%
D12*
%TO.C,L1*%
X37627500Y24130000D03*
X36667500Y24130000D03*
%TD*%
D11*
%TO.C,R7*%
X16955000Y20955000D03*
X18605000Y20955000D03*
%TD*%
M02*
