%TF.GenerationSoftware,KiCad,Pcbnew,8.0.5*%
%TF.CreationDate,2024-10-02T11:06:20-06:00*%
%TF.ProjectId,SparkFun_GNSS_LG290P_panelized,53706172-6b46-4756-9e5f-474e53535f4c,rev?*%
%TF.SameCoordinates,Original*%
%TF.FileFunction,Soldermask,Bot*%
%TF.FilePolarity,Negative*%
%FSLAX46Y46*%
G04 Gerber Fmt 4.6, Leading zero omitted, Abs format (unit mm)*
G04 Created by KiCad (PCBNEW 8.0.5) date 2024-10-02 11:06:20*
%MOMM*%
%LPD*%
G01*
G04 APERTURE LIST*
G04 Aperture macros list*
%AMRoundRect*
0 Rectangle with rounded corners*
0 $1 Rounding radius*
0 $2 $3 $4 $5 $6 $7 $8 $9 X,Y pos of 4 corners*
0 Add a 4 corners polygon primitive as box body*
4,1,4,$2,$3,$4,$5,$6,$7,$8,$9,$2,$3,0*
0 Add four circle primitives for the rounded corners*
1,1,$1+$1,$2,$3*
1,1,$1+$1,$4,$5*
1,1,$1+$1,$6,$7*
1,1,$1+$1,$8,$9*
0 Add four rect primitives between the rounded corners*
20,1,$1+$1,$2,$3,$4,$5,0*
20,1,$1+$1,$4,$5,$6,$7,0*
20,1,$1+$1,$6,$7,$8,$9,0*
20,1,$1+$1,$8,$9,$2,$3,0*%
G04 Aperture macros list end*
%ADD10C,0.000000*%
%ADD11C,3.000000*%
%ADD12RoundRect,0.101600X-0.330200X-0.635000X0.330200X-0.635000X0.330200X0.635000X-0.330200X0.635000X0*%
%ADD13RoundRect,0.101600X-0.635000X0.330200X-0.635000X-0.330200X0.635000X-0.330200X0.635000X0.330200X0*%
%ADD14C,1.000000*%
%ADD15RoundRect,0.101600X0.635000X-0.330200X0.635000X0.330200X-0.635000X0.330200X-0.635000X-0.330200X0*%
%ADD16C,3.200000*%
%ADD17RoundRect,0.101600X-2.000000X0.750000X-2.000000X-0.750000X2.000000X-0.750000X2.000000X0.750000X0*%
%ADD18C,2.082800*%
%ADD19C,0.750000*%
%ADD20O,1.700000X1.100000*%
%ADD21O,2.200000X1.100000*%
G04 APERTURE END LIST*
D10*
%TO.C,JP5*%
G36*
X70477000Y161914500D02*
G01*
X69969000Y161914500D01*
X69969000Y162395500D01*
X70477000Y162395500D01*
X70477000Y161914500D01*
G37*
G36*
X70477000Y118234500D02*
G01*
X69969000Y118234500D01*
X69969000Y118715500D01*
X70477000Y118715500D01*
X70477000Y118234500D01*
G37*
G36*
X70477000Y74554500D02*
G01*
X69969000Y74554500D01*
X69969000Y75035500D01*
X70477000Y75035500D01*
X70477000Y74554500D01*
G37*
G36*
X70477000Y30874500D02*
G01*
X69969000Y30874500D01*
X69969000Y31355500D01*
X70477000Y31355500D01*
X70477000Y30874500D01*
G37*
G36*
X23749000Y161914500D02*
G01*
X23241000Y161914500D01*
X23241000Y162395500D01*
X23749000Y162395500D01*
X23749000Y161914500D01*
G37*
G36*
X23749000Y118234500D02*
G01*
X23241000Y118234500D01*
X23241000Y118715500D01*
X23749000Y118715500D01*
X23749000Y118234500D01*
G37*
G36*
X23749000Y74554500D02*
G01*
X23241000Y74554500D01*
X23241000Y75035500D01*
X23749000Y75035500D01*
X23749000Y74554500D01*
G37*
%TO.C,JP6*%
G36*
X83163500Y140311000D02*
G01*
X82682500Y140311000D01*
X82682500Y140819000D01*
X83163500Y140819000D01*
X83163500Y140311000D01*
G37*
G36*
X83163500Y96631000D02*
G01*
X82682500Y96631000D01*
X82682500Y97139000D01*
X83163500Y97139000D01*
X83163500Y96631000D01*
G37*
G36*
X83163500Y52951000D02*
G01*
X82682500Y52951000D01*
X82682500Y53459000D01*
X83163500Y53459000D01*
X83163500Y52951000D01*
G37*
G36*
X83163500Y9271000D02*
G01*
X82682500Y9271000D01*
X82682500Y9779000D01*
X83163500Y9779000D01*
X83163500Y9271000D01*
G37*
G36*
X36435500Y140311000D02*
G01*
X35954500Y140311000D01*
X35954500Y140819000D01*
X36435500Y140819000D01*
X36435500Y140311000D01*
G37*
G36*
X36435500Y96631000D02*
G01*
X35954500Y96631000D01*
X35954500Y97139000D01*
X36435500Y97139000D01*
X36435500Y96631000D01*
G37*
G36*
X36435500Y52951000D02*
G01*
X35954500Y52951000D01*
X35954500Y53459000D01*
X36435500Y53459000D01*
X36435500Y52951000D01*
G37*
%TO.C,JP2*%
G36*
X70477000Y166994500D02*
G01*
X69969000Y166994500D01*
X69969000Y167475500D01*
X70477000Y167475500D01*
X70477000Y166994500D01*
G37*
G36*
X70477000Y123314500D02*
G01*
X69969000Y123314500D01*
X69969000Y123795500D01*
X70477000Y123795500D01*
X70477000Y123314500D01*
G37*
G36*
X70477000Y79634500D02*
G01*
X69969000Y79634500D01*
X69969000Y80115500D01*
X70477000Y80115500D01*
X70477000Y79634500D01*
G37*
G36*
X70477000Y35954500D02*
G01*
X69969000Y35954500D01*
X69969000Y36435500D01*
X70477000Y36435500D01*
X70477000Y35954500D01*
G37*
G36*
X23749000Y166994500D02*
G01*
X23241000Y166994500D01*
X23241000Y167475500D01*
X23749000Y167475500D01*
X23749000Y166994500D01*
G37*
G36*
X23749000Y123314500D02*
G01*
X23241000Y123314500D01*
X23241000Y123795500D01*
X23749000Y123795500D01*
X23749000Y123314500D01*
G37*
G36*
X23749000Y79634500D02*
G01*
X23241000Y79634500D01*
X23241000Y80115500D01*
X23749000Y80115500D01*
X23749000Y79634500D01*
G37*
%TO.C,JP1*%
G36*
X55858500Y157456000D02*
G01*
X55377500Y157456000D01*
X55377500Y157964000D01*
X55858500Y157964000D01*
X55858500Y157456000D01*
G37*
G36*
X55858500Y113776000D02*
G01*
X55377500Y113776000D01*
X55377500Y114284000D01*
X55858500Y114284000D01*
X55858500Y113776000D01*
G37*
G36*
X55858500Y70096000D02*
G01*
X55377500Y70096000D01*
X55377500Y70604000D01*
X55858500Y70604000D01*
X55858500Y70096000D01*
G37*
G36*
X55858500Y26416000D02*
G01*
X55377500Y26416000D01*
X55377500Y26924000D01*
X55858500Y26924000D01*
X55858500Y26416000D01*
G37*
G36*
X9130500Y157456000D02*
G01*
X8649500Y157456000D01*
X8649500Y157964000D01*
X9130500Y157964000D01*
X9130500Y157456000D01*
G37*
G36*
X9130500Y113776000D02*
G01*
X8649500Y113776000D01*
X8649500Y114284000D01*
X9130500Y114284000D01*
X9130500Y113776000D01*
G37*
G36*
X9130500Y70096000D02*
G01*
X8649500Y70096000D01*
X8649500Y70604000D01*
X9130500Y70604000D01*
X9130500Y70096000D01*
G37*
%TO.C,JP7*%
G36*
X48234750Y143486000D02*
G01*
X47753750Y143486000D01*
X47753750Y143994000D01*
X48234750Y143994000D01*
X48234750Y143486000D01*
G37*
G36*
X48234750Y99806000D02*
G01*
X47753750Y99806000D01*
X47753750Y100314000D01*
X48234750Y100314000D01*
X48234750Y99806000D01*
G37*
G36*
X48234750Y56126000D02*
G01*
X47753750Y56126000D01*
X47753750Y56634000D01*
X48234750Y56634000D01*
X48234750Y56126000D01*
G37*
G36*
X48234750Y12446000D02*
G01*
X47753750Y12446000D01*
X47753750Y12954000D01*
X48234750Y12954000D01*
X48234750Y12446000D01*
G37*
G36*
X1506750Y143486000D02*
G01*
X1025750Y143486000D01*
X1025750Y143994000D01*
X1506750Y143994000D01*
X1506750Y143486000D01*
G37*
G36*
X1506750Y99806000D02*
G01*
X1025750Y99806000D01*
X1025750Y100314000D01*
X1506750Y100314000D01*
X1506750Y99806000D01*
G37*
G36*
X1506750Y56126000D02*
G01*
X1025750Y56126000D01*
X1025750Y56634000D01*
X1506750Y56634000D01*
X1506750Y56126000D01*
G37*
%TO.C,JP3*%
G36*
X70477000Y164454500D02*
G01*
X69969000Y164454500D01*
X69969000Y164935500D01*
X70477000Y164935500D01*
X70477000Y164454500D01*
G37*
G36*
X70477000Y120774500D02*
G01*
X69969000Y120774500D01*
X69969000Y121255500D01*
X70477000Y121255500D01*
X70477000Y120774500D01*
G37*
G36*
X70477000Y77094500D02*
G01*
X69969000Y77094500D01*
X69969000Y77575500D01*
X70477000Y77575500D01*
X70477000Y77094500D01*
G37*
G36*
X70477000Y33414500D02*
G01*
X69969000Y33414500D01*
X69969000Y33895500D01*
X70477000Y33895500D01*
X70477000Y33414500D01*
G37*
G36*
X23749000Y164454500D02*
G01*
X23241000Y164454500D01*
X23241000Y164935500D01*
X23749000Y164935500D01*
X23749000Y164454500D01*
G37*
G36*
X23749000Y120774500D02*
G01*
X23241000Y120774500D01*
X23241000Y121255500D01*
X23749000Y121255500D01*
X23749000Y120774500D01*
G37*
G36*
X23749000Y77094500D02*
G01*
X23241000Y77094500D01*
X23241000Y77575500D01*
X23749000Y77575500D01*
X23749000Y77094500D01*
G37*
%TO.C,JP4*%
G36*
X82528500Y163056700D02*
G01*
X82047500Y163056700D01*
X82047500Y163564700D01*
X82528500Y163564700D01*
X82528500Y163056700D01*
G37*
G36*
X82528500Y119376700D02*
G01*
X82047500Y119376700D01*
X82047500Y119884700D01*
X82528500Y119884700D01*
X82528500Y119376700D01*
G37*
G36*
X82528500Y75696700D02*
G01*
X82047500Y75696700D01*
X82047500Y76204700D01*
X82528500Y76204700D01*
X82528500Y75696700D01*
G37*
G36*
X82528500Y32016700D02*
G01*
X82047500Y32016700D01*
X82047500Y32524700D01*
X82528500Y32524700D01*
X82528500Y32016700D01*
G37*
G36*
X35800500Y163056700D02*
G01*
X35319500Y163056700D01*
X35319500Y163564700D01*
X35800500Y163564700D01*
X35800500Y163056700D01*
G37*
G36*
X35800500Y119376700D02*
G01*
X35319500Y119376700D01*
X35319500Y119884700D01*
X35800500Y119884700D01*
X35800500Y119376700D01*
G37*
G36*
X35800500Y75696700D02*
G01*
X35319500Y75696700D01*
X35319500Y76204700D01*
X35800500Y76204700D01*
X35800500Y75696700D01*
G37*
G36*
X35800500Y32016700D02*
G01*
X35319500Y32016700D01*
X35319500Y32524700D01*
X35800500Y32524700D01*
X35800500Y32016700D01*
G37*
%TO.C,JP3*%
G36*
X23749000Y33414500D02*
G01*
X23241000Y33414500D01*
X23241000Y33895500D01*
X23749000Y33895500D01*
X23749000Y33414500D01*
G37*
%TO.C,JP7*%
G36*
X1506750Y12446000D02*
G01*
X1025750Y12446000D01*
X1025750Y12954000D01*
X1506750Y12954000D01*
X1506750Y12446000D01*
G37*
%TO.C,JP1*%
G36*
X9130500Y26416000D02*
G01*
X8649500Y26416000D01*
X8649500Y26924000D01*
X9130500Y26924000D01*
X9130500Y26416000D01*
G37*
%TO.C,JP2*%
G36*
X23749000Y35954500D02*
G01*
X23241000Y35954500D01*
X23241000Y36435500D01*
X23749000Y36435500D01*
X23749000Y35954500D01*
G37*
%TO.C,JP6*%
G36*
X36435500Y9271000D02*
G01*
X35954500Y9271000D01*
X35954500Y9779000D01*
X36435500Y9779000D01*
X36435500Y9271000D01*
G37*
%TO.C,JP5*%
G36*
X23749000Y30874500D02*
G01*
X23241000Y30874500D01*
X23241000Y31355500D01*
X23749000Y31355500D01*
X23749000Y30874500D01*
G37*
%TD*%
D11*
%TO.C,*%
X96631000Y172220000D03*
%TD*%
%TO.C,*%
X-6723000Y172220000D03*
%TD*%
%TO.C,*%
X-6723000Y2000000D03*
%TD*%
D12*
%TO.C,JP5*%
X69702300Y162155000D03*
X70743700Y162155000D03*
%TD*%
%TO.C,JP5*%
X69702300Y118475000D03*
X70743700Y118475000D03*
%TD*%
%TO.C,JP5*%
X69702300Y74795000D03*
X70743700Y74795000D03*
%TD*%
%TO.C,JP5*%
X69702300Y31115000D03*
X70743700Y31115000D03*
%TD*%
%TO.C,JP5*%
X22974300Y162155000D03*
X24015700Y162155000D03*
%TD*%
%TO.C,JP5*%
X22974300Y118475000D03*
X24015700Y118475000D03*
%TD*%
%TO.C,JP5*%
X22974300Y74795000D03*
X24015700Y74795000D03*
%TD*%
D13*
%TO.C,JP6*%
X82923000Y141085700D03*
X82923000Y140044300D03*
%TD*%
%TO.C,JP6*%
X82923000Y97405700D03*
X82923000Y96364300D03*
%TD*%
%TO.C,JP6*%
X82923000Y53725700D03*
X82923000Y52684300D03*
%TD*%
%TO.C,JP6*%
X82923000Y10045700D03*
X82923000Y9004300D03*
%TD*%
%TO.C,JP6*%
X36195000Y141085700D03*
X36195000Y140044300D03*
%TD*%
%TO.C,JP6*%
X36195000Y97405700D03*
X36195000Y96364300D03*
%TD*%
%TO.C,JP6*%
X36195000Y53725700D03*
X36195000Y52684300D03*
%TD*%
D12*
%TO.C,JP2*%
X69702300Y167235000D03*
X70743700Y167235000D03*
%TD*%
%TO.C,JP2*%
X69702300Y123555000D03*
X70743700Y123555000D03*
%TD*%
%TO.C,JP2*%
X69702300Y79875000D03*
X70743700Y79875000D03*
%TD*%
%TO.C,JP2*%
X69702300Y36195000D03*
X70743700Y36195000D03*
%TD*%
%TO.C,JP2*%
X22974300Y167235000D03*
X24015700Y167235000D03*
%TD*%
%TO.C,JP2*%
X22974300Y123555000D03*
X24015700Y123555000D03*
%TD*%
%TO.C,JP2*%
X22974300Y79875000D03*
X24015700Y79875000D03*
%TD*%
D14*
%TO.C,FID1*%
X89273000Y131675000D03*
%TD*%
%TO.C,FID1*%
X89273000Y87995000D03*
%TD*%
%TO.C,FID1*%
X89273000Y44315000D03*
%TD*%
%TO.C,FID1*%
X89273000Y635000D03*
%TD*%
%TO.C,FID1*%
X42545000Y131675000D03*
%TD*%
%TO.C,FID1*%
X42545000Y87995000D03*
%TD*%
%TO.C,FID1*%
X42545000Y44315000D03*
%TD*%
%TO.C,FID2*%
X47363000Y173585000D03*
%TD*%
%TO.C,FID2*%
X47363000Y129905000D03*
%TD*%
%TO.C,FID2*%
X47363000Y86225000D03*
%TD*%
%TO.C,FID2*%
X47363000Y42545000D03*
%TD*%
%TO.C,FID2*%
X635000Y173585000D03*
%TD*%
%TO.C,FID2*%
X635000Y129905000D03*
%TD*%
%TO.C,FID2*%
X635000Y86225000D03*
%TD*%
D15*
%TO.C,JP1*%
X55618000Y157189300D03*
X55618000Y158230700D03*
%TD*%
%TO.C,JP1*%
X55618000Y113509300D03*
X55618000Y114550700D03*
%TD*%
%TO.C,JP1*%
X55618000Y69829300D03*
X55618000Y70870700D03*
%TD*%
%TO.C,JP1*%
X55618000Y26149300D03*
X55618000Y27190700D03*
%TD*%
%TO.C,JP1*%
X8890000Y157189300D03*
X8890000Y158230700D03*
%TD*%
%TO.C,JP1*%
X8890000Y113509300D03*
X8890000Y114550700D03*
%TD*%
%TO.C,JP1*%
X8890000Y69829300D03*
X8890000Y70870700D03*
%TD*%
D13*
%TO.C,JP7*%
X47994250Y144260700D03*
X47994250Y143219300D03*
%TD*%
%TO.C,JP7*%
X47994250Y100580700D03*
X47994250Y99539300D03*
%TD*%
%TO.C,JP7*%
X47994250Y56900700D03*
X47994250Y55859300D03*
%TD*%
%TO.C,JP7*%
X47994250Y13220700D03*
X47994250Y12179300D03*
%TD*%
%TO.C,JP7*%
X1266250Y144260700D03*
X1266250Y143219300D03*
%TD*%
%TO.C,JP7*%
X1266250Y100580700D03*
X1266250Y99539300D03*
%TD*%
%TO.C,JP7*%
X1266250Y56900700D03*
X1266250Y55859300D03*
%TD*%
D12*
%TO.C,JP3*%
X69702300Y164695000D03*
X70743700Y164695000D03*
%TD*%
%TO.C,JP3*%
X69702300Y121015000D03*
X70743700Y121015000D03*
%TD*%
%TO.C,JP3*%
X69702300Y77335000D03*
X70743700Y77335000D03*
%TD*%
%TO.C,JP3*%
X69702300Y33655000D03*
X70743700Y33655000D03*
%TD*%
%TO.C,JP3*%
X22974300Y164695000D03*
X24015700Y164695000D03*
%TD*%
%TO.C,JP3*%
X22974300Y121015000D03*
X24015700Y121015000D03*
%TD*%
%TO.C,JP3*%
X22974300Y77335000D03*
X24015700Y77335000D03*
%TD*%
D13*
%TO.C,JP4*%
X82288000Y163831400D03*
X82288000Y162790000D03*
D15*
X82288000Y161748600D03*
%TD*%
D13*
%TO.C,JP4*%
X82288000Y120151400D03*
X82288000Y119110000D03*
D15*
X82288000Y118068600D03*
%TD*%
D13*
%TO.C,JP4*%
X82288000Y76471400D03*
X82288000Y75430000D03*
D15*
X82288000Y74388600D03*
%TD*%
D13*
%TO.C,JP4*%
X82288000Y32791400D03*
X82288000Y31750000D03*
D15*
X82288000Y30708600D03*
%TD*%
D13*
%TO.C,JP4*%
X35560000Y163831400D03*
X35560000Y162790000D03*
D15*
X35560000Y161748600D03*
%TD*%
D13*
%TO.C,JP4*%
X35560000Y120151400D03*
X35560000Y119110000D03*
D15*
X35560000Y118068600D03*
%TD*%
D13*
%TO.C,JP4*%
X35560000Y76471400D03*
X35560000Y75430000D03*
D15*
X35560000Y74388600D03*
%TD*%
D16*
%TO.C,ST4*%
X49268000Y133580000D03*
%TD*%
%TO.C,ST4*%
X49268000Y89900000D03*
%TD*%
%TO.C,ST4*%
X49268000Y46220000D03*
%TD*%
%TO.C,ST4*%
X49268000Y2540000D03*
%TD*%
%TO.C,ST4*%
X2540000Y133580000D03*
%TD*%
%TO.C,ST4*%
X2540000Y89900000D03*
%TD*%
%TO.C,ST4*%
X2540000Y46220000D03*
%TD*%
%TO.C,ST3*%
X49268000Y171680000D03*
%TD*%
%TO.C,ST3*%
X49268000Y128000000D03*
%TD*%
%TO.C,ST3*%
X49268000Y84320000D03*
%TD*%
%TO.C,ST3*%
X49268000Y40640000D03*
%TD*%
%TO.C,ST3*%
X2540000Y171680000D03*
%TD*%
%TO.C,ST3*%
X2540000Y128000000D03*
%TD*%
%TO.C,ST3*%
X2540000Y84320000D03*
%TD*%
D17*
%TO.C,J3*%
X87749000Y143740000D03*
X87749000Y138660000D03*
%TD*%
%TO.C,J3*%
X87749000Y100060000D03*
X87749000Y94980000D03*
%TD*%
%TO.C,J3*%
X87749000Y56380000D03*
X87749000Y51300000D03*
%TD*%
%TO.C,J3*%
X87749000Y12700000D03*
X87749000Y7620000D03*
%TD*%
%TO.C,J3*%
X41021000Y143740000D03*
X41021000Y138660000D03*
%TD*%
%TO.C,J3*%
X41021000Y100060000D03*
X41021000Y94980000D03*
%TD*%
%TO.C,J3*%
X41021000Y56380000D03*
X41021000Y51300000D03*
%TD*%
D18*
%TO.C,J10*%
X70858000Y132310000D03*
X73398000Y132310000D03*
X75938000Y132310000D03*
X78478000Y132310000D03*
X81018000Y132310000D03*
X83558000Y132310000D03*
%TD*%
%TO.C,J10*%
X70858000Y88630000D03*
X73398000Y88630000D03*
X75938000Y88630000D03*
X78478000Y88630000D03*
X81018000Y88630000D03*
X83558000Y88630000D03*
%TD*%
%TO.C,J10*%
X70858000Y44950000D03*
X73398000Y44950000D03*
X75938000Y44950000D03*
X78478000Y44950000D03*
X81018000Y44950000D03*
X83558000Y44950000D03*
%TD*%
%TO.C,J10*%
X70858000Y1270000D03*
X73398000Y1270000D03*
X75938000Y1270000D03*
X78478000Y1270000D03*
X81018000Y1270000D03*
X83558000Y1270000D03*
%TD*%
%TO.C,J10*%
X24130000Y132310000D03*
X26670000Y132310000D03*
X29210000Y132310000D03*
X31750000Y132310000D03*
X34290000Y132310000D03*
X36830000Y132310000D03*
%TD*%
%TO.C,J10*%
X24130000Y88630000D03*
X26670000Y88630000D03*
X29210000Y88630000D03*
X31750000Y88630000D03*
X34290000Y88630000D03*
X36830000Y88630000D03*
%TD*%
%TO.C,J10*%
X24130000Y44950000D03*
X26670000Y44950000D03*
X29210000Y44950000D03*
X31750000Y44950000D03*
X34290000Y44950000D03*
X36830000Y44950000D03*
%TD*%
D16*
%TO.C,ST1*%
X87368000Y171680000D03*
%TD*%
%TO.C,ST1*%
X87368000Y128000000D03*
%TD*%
%TO.C,ST1*%
X87368000Y84320000D03*
%TD*%
%TO.C,ST1*%
X87368000Y40640000D03*
%TD*%
%TO.C,ST1*%
X40640000Y171680000D03*
%TD*%
%TO.C,ST1*%
X40640000Y128000000D03*
%TD*%
%TO.C,ST1*%
X40640000Y84320000D03*
%TD*%
D18*
%TO.C,J9*%
X60698000Y132310000D03*
X63238000Y132310000D03*
X65778000Y132310000D03*
X68318000Y132310000D03*
%TD*%
%TO.C,J9*%
X60698000Y88630000D03*
X63238000Y88630000D03*
X65778000Y88630000D03*
X68318000Y88630000D03*
%TD*%
%TO.C,J9*%
X60698000Y44950000D03*
X63238000Y44950000D03*
X65778000Y44950000D03*
X68318000Y44950000D03*
%TD*%
%TO.C,J9*%
X60698000Y1270000D03*
X63238000Y1270000D03*
X65778000Y1270000D03*
X68318000Y1270000D03*
%TD*%
%TO.C,J9*%
X13970000Y132310000D03*
X16510000Y132310000D03*
X19050000Y132310000D03*
X21590000Y132310000D03*
%TD*%
%TO.C,J9*%
X13970000Y88630000D03*
X16510000Y88630000D03*
X19050000Y88630000D03*
X21590000Y88630000D03*
%TD*%
%TO.C,J9*%
X13970000Y44950000D03*
X16510000Y44950000D03*
X19050000Y44950000D03*
X21590000Y44950000D03*
%TD*%
D17*
%TO.C,J5*%
X87749000Y153011000D03*
X87749000Y147931000D03*
%TD*%
%TO.C,J5*%
X87749000Y109331000D03*
X87749000Y104251000D03*
%TD*%
%TO.C,J5*%
X87749000Y65651000D03*
X87749000Y60571000D03*
%TD*%
%TO.C,J5*%
X87749000Y21971000D03*
X87749000Y16891000D03*
%TD*%
%TO.C,J5*%
X41021000Y153011000D03*
X41021000Y147931000D03*
%TD*%
%TO.C,J5*%
X41021000Y109331000D03*
X41021000Y104251000D03*
%TD*%
%TO.C,J5*%
X41021000Y65651000D03*
X41021000Y60571000D03*
%TD*%
D18*
%TO.C,J6*%
X81018000Y172950000D03*
X78478000Y172950000D03*
X75938000Y172950000D03*
X73398000Y172950000D03*
X70858000Y172950000D03*
X68318000Y172950000D03*
X65778000Y172950000D03*
X63238000Y172950000D03*
X60698000Y172950000D03*
%TD*%
%TO.C,J6*%
X81018000Y129270000D03*
X78478000Y129270000D03*
X75938000Y129270000D03*
X73398000Y129270000D03*
X70858000Y129270000D03*
X68318000Y129270000D03*
X65778000Y129270000D03*
X63238000Y129270000D03*
X60698000Y129270000D03*
%TD*%
%TO.C,J6*%
X81018000Y85590000D03*
X78478000Y85590000D03*
X75938000Y85590000D03*
X73398000Y85590000D03*
X70858000Y85590000D03*
X68318000Y85590000D03*
X65778000Y85590000D03*
X63238000Y85590000D03*
X60698000Y85590000D03*
%TD*%
%TO.C,J6*%
X81018000Y41910000D03*
X78478000Y41910000D03*
X75938000Y41910000D03*
X73398000Y41910000D03*
X70858000Y41910000D03*
X68318000Y41910000D03*
X65778000Y41910000D03*
X63238000Y41910000D03*
X60698000Y41910000D03*
%TD*%
%TO.C,J6*%
X34290000Y172950000D03*
X31750000Y172950000D03*
X29210000Y172950000D03*
X26670000Y172950000D03*
X24130000Y172950000D03*
X21590000Y172950000D03*
X19050000Y172950000D03*
X16510000Y172950000D03*
X13970000Y172950000D03*
%TD*%
%TO.C,J6*%
X34290000Y129270000D03*
X31750000Y129270000D03*
X29210000Y129270000D03*
X26670000Y129270000D03*
X24130000Y129270000D03*
X21590000Y129270000D03*
X19050000Y129270000D03*
X16510000Y129270000D03*
X13970000Y129270000D03*
%TD*%
%TO.C,J6*%
X34290000Y85590000D03*
X31750000Y85590000D03*
X29210000Y85590000D03*
X26670000Y85590000D03*
X24130000Y85590000D03*
X21590000Y85590000D03*
X19050000Y85590000D03*
X16510000Y85590000D03*
X13970000Y85590000D03*
%TD*%
D16*
%TO.C,ST2*%
X87368000Y133580000D03*
%TD*%
%TO.C,ST2*%
X87368000Y89900000D03*
%TD*%
%TO.C,ST2*%
X87368000Y46220000D03*
%TD*%
%TO.C,ST2*%
X87368000Y2540000D03*
%TD*%
%TO.C,ST2*%
X40640000Y133580000D03*
%TD*%
%TO.C,ST2*%
X40640000Y89900000D03*
%TD*%
%TO.C,ST2*%
X40640000Y46220000D03*
%TD*%
D19*
%TO.C,J1*%
X51633000Y146630000D03*
X51633000Y140850000D03*
D20*
X47983000Y148058000D03*
D21*
X52163000Y148058000D03*
X52163000Y139422000D03*
D20*
X47983000Y139422000D03*
%TD*%
D19*
%TO.C,J1*%
X51633000Y102950000D03*
X51633000Y97170000D03*
D20*
X47983000Y104378000D03*
D21*
X52163000Y104378000D03*
X52163000Y95742000D03*
D20*
X47983000Y95742000D03*
%TD*%
D19*
%TO.C,J1*%
X51633000Y59270000D03*
X51633000Y53490000D03*
D20*
X47983000Y60698000D03*
D21*
X52163000Y60698000D03*
X52163000Y52062000D03*
D20*
X47983000Y52062000D03*
%TD*%
D19*
%TO.C,J1*%
X51633000Y15590000D03*
X51633000Y9810000D03*
D20*
X47983000Y17018000D03*
D21*
X52163000Y17018000D03*
X52163000Y8382000D03*
D20*
X47983000Y8382000D03*
%TD*%
D19*
%TO.C,J1*%
X4905000Y146630000D03*
X4905000Y140850000D03*
D20*
X1255000Y148058000D03*
D21*
X5435000Y148058000D03*
X5435000Y139422000D03*
D20*
X1255000Y139422000D03*
%TD*%
D19*
%TO.C,J1*%
X4905000Y102950000D03*
X4905000Y97170000D03*
D20*
X1255000Y104378000D03*
D21*
X5435000Y104378000D03*
X5435000Y95742000D03*
D20*
X1255000Y95742000D03*
%TD*%
D19*
%TO.C,J1*%
X4905000Y59270000D03*
X4905000Y53490000D03*
D20*
X1255000Y60698000D03*
D21*
X5435000Y60698000D03*
X5435000Y52062000D03*
D20*
X1255000Y52062000D03*
%TD*%
D18*
%TO.C,J2*%
X47998000Y165330000D03*
X47998000Y162790000D03*
X47998000Y160250000D03*
X47998000Y157710000D03*
X47998000Y155170000D03*
X47998000Y152630000D03*
%TD*%
%TO.C,J2*%
X47998000Y121650000D03*
X47998000Y119110000D03*
X47998000Y116570000D03*
X47998000Y114030000D03*
X47998000Y111490000D03*
X47998000Y108950000D03*
%TD*%
%TO.C,J2*%
X47998000Y77970000D03*
X47998000Y75430000D03*
X47998000Y72890000D03*
X47998000Y70350000D03*
X47998000Y67810000D03*
X47998000Y65270000D03*
%TD*%
%TO.C,J2*%
X47998000Y34290000D03*
X47998000Y31750000D03*
X47998000Y29210000D03*
X47998000Y26670000D03*
X47998000Y24130000D03*
X47998000Y21590000D03*
%TD*%
%TO.C,J2*%
X1270000Y165330000D03*
X1270000Y162790000D03*
X1270000Y160250000D03*
X1270000Y157710000D03*
X1270000Y155170000D03*
X1270000Y152630000D03*
%TD*%
%TO.C,J2*%
X1270000Y121650000D03*
X1270000Y119110000D03*
X1270000Y116570000D03*
X1270000Y114030000D03*
X1270000Y111490000D03*
X1270000Y108950000D03*
%TD*%
%TO.C,J2*%
X1270000Y77970000D03*
X1270000Y75430000D03*
X1270000Y72890000D03*
X1270000Y70350000D03*
X1270000Y67810000D03*
X1270000Y65270000D03*
%TD*%
%TO.C,J2*%
X1270000Y34290000D03*
X1270000Y31750000D03*
X1270000Y29210000D03*
X1270000Y26670000D03*
X1270000Y24130000D03*
X1270000Y21590000D03*
%TD*%
D19*
%TO.C,J1*%
X4905000Y15590000D03*
X4905000Y9810000D03*
D20*
X1255000Y17018000D03*
D21*
X5435000Y17018000D03*
X5435000Y8382000D03*
D20*
X1255000Y8382000D03*
%TD*%
D16*
%TO.C,ST2*%
X40640000Y2540000D03*
%TD*%
D18*
%TO.C,J6*%
X34290000Y41910000D03*
X31750000Y41910000D03*
X29210000Y41910000D03*
X26670000Y41910000D03*
X24130000Y41910000D03*
X21590000Y41910000D03*
X19050000Y41910000D03*
X16510000Y41910000D03*
X13970000Y41910000D03*
%TD*%
D17*
%TO.C,J5*%
X41021000Y21971000D03*
X41021000Y16891000D03*
%TD*%
D18*
%TO.C,J9*%
X13970000Y1270000D03*
X16510000Y1270000D03*
X19050000Y1270000D03*
X21590000Y1270000D03*
%TD*%
D16*
%TO.C,ST1*%
X40640000Y40640000D03*
%TD*%
D18*
%TO.C,J10*%
X24130000Y1270000D03*
X26670000Y1270000D03*
X29210000Y1270000D03*
X31750000Y1270000D03*
X34290000Y1270000D03*
X36830000Y1270000D03*
%TD*%
D17*
%TO.C,J3*%
X41021000Y12700000D03*
X41021000Y7620000D03*
%TD*%
D16*
%TO.C,ST3*%
X2540000Y40640000D03*
%TD*%
%TO.C,ST4*%
X2540000Y2540000D03*
%TD*%
D13*
%TO.C,JP4*%
X35560000Y32791400D03*
X35560000Y31750000D03*
D15*
X35560000Y30708600D03*
%TD*%
D12*
%TO.C,JP3*%
X22974300Y33655000D03*
X24015700Y33655000D03*
%TD*%
D13*
%TO.C,JP7*%
X1266250Y13220700D03*
X1266250Y12179300D03*
%TD*%
D15*
%TO.C,JP1*%
X8890000Y26149300D03*
X8890000Y27190700D03*
%TD*%
D14*
%TO.C,FID2*%
X635000Y42545000D03*
%TD*%
%TO.C,FID1*%
X42545000Y635000D03*
%TD*%
D12*
%TO.C,JP2*%
X22974300Y36195000D03*
X24015700Y36195000D03*
%TD*%
D13*
%TO.C,JP6*%
X36195000Y10045700D03*
X36195000Y9004300D03*
%TD*%
D12*
%TO.C,JP5*%
X22974300Y31115000D03*
X24015700Y31115000D03*
%TD*%
M02*
